<?xml version="1.0" encoding="utf-8"?>
<!-- Generator: Adobe Illustrator 21.0.0, SVG Export Plug-In . SVG Version: 6.00 Build 0)  -->
<svg version="1.1" id="Слой_1" xmlns="http://www.w3.org/2000/svg" xmlns:xlink="http://www.w3.org/1999/xlink" x="0px" y="0px"
	 viewBox="0 0 61 34" style="enable-background:new 0 0 61 34;" xml:space="preserve">
<style type="text/css">
	.st0{fill:none;}
</style>
<g>
	<path d="M14.457,3.9336c-0.166,0.5078-0.5625,0.7617-1.1914,0.7617h-2.9004l-0.918,2.4761H7.6997l0.918-2.4761h-1.499
		C5.478,6.6255,3.875,7.5903,2.3091,7.5903c-0.4556,0-0.8398-0.0825-1.1523-0.2476c-0.394-0.2095-0.5908-0.5171-0.5908-0.9238
		c0-0.3457,0.1465-0.6836,0.4395-1.0142C1.4775,4.875,2.1919,4.4829,3.1489,4.229c0.7485-0.1968,1.5757-0.2954,2.4805-0.2954h0.9473
		l2.9585-3.4614h2.3535l-1.2598,3.4614H14.457z M5.9175,4.6953c-1.2207,0-2.0767,0.1719-2.5684,0.5146
		C2.9424,5.4956,2.7388,5.7988,2.7388,6.1191c0,0.2729,0.1465,0.4097,0.4395,0.4097c0.4038,0,0.9082-0.2222,1.5137-0.667
		C5.2227,5.478,5.6309,5.0894,5.9175,4.6953z M9.9063,1.2627L7.7681,3.9336h1.0889L9.9063,1.2627z"/>
</g>
<g>
	<path d="M11.3359,7.958c0,0.4785-0.252,0.9263-0.7563,1.3428c-0.3027,0.2505-0.7632,0.5273-1.3818,0.8301
		c0.2505,0.4326,0.376,0.8252,0.376,1.1768c0,0.7256-0.4688,1.2627-1.4063,1.6113C7.4971,13.166,6.7158,13.29,5.8237,13.29H3.2847
		l1.7627-5.0098h1.7578l-1.499,4.2285h0.249c0.5698,0,1.0513-0.0654,1.4453-0.1953c0.5825-0.1982,0.874-0.5225,0.874-0.9717
		c0-0.1436-0.0649-0.3154-0.1953-0.5146c-0.1304-0.2012-0.1953-0.3467-0.1953-0.4375c0-0.0459,0.0034-0.0781,0.0098-0.0977
		c0.0649-0.1436,0.2427-0.2832,0.5322-0.4199c0.4004-0.1919,0.6934-0.3696,0.8789-0.5322c0.3125-0.27,0.4688-0.5825,0.4688-0.9375
		c0-0.5015-0.3823-0.752-1.1475-0.752H2.5132l0.752-1.2305h5.6982c0.7485,0,1.3101,0.1011,1.6846,0.3027
		C11.1074,6.9702,11.3359,7.3818,11.3359,7.958z"/>
	<path d="M13.1719,12.9775c-0.0625,0.208-0.2227,0.3125-0.4785,0.3125h-0.7402c-0.2109,0-0.3164-0.0674-0.3164-0.2031
		c-0.1426,0.1611-0.3164,0.2422-0.5234,0.2422c-0.1528,0-0.2764-0.0469-0.3716-0.1406s-0.1426-0.2158-0.1426-0.3672
		c0-0.2725,0.104-0.4873,0.3125-0.6445c0.189-0.1436,0.4224-0.2148,0.7017-0.2148h1.1152l-0.3672,1.0156H13.1719z M11.9121,12.2744
		h-0.4316l-0.1367,0.4551c-0.0078,0.0283-0.0117,0.0547-0.0117,0.0781c0,0.1133,0.1104,0.1699,0.332,0.1699L11.9121,12.2744z"/>
	<path d="M15.5273,12.9775c-0.0049,0.0869-0.0547,0.1611-0.1494,0.2217S15.1807,13.29,15.0684,13.29H13.584
		c-0.2852,0-0.4277-0.0869-0.4277-0.2617c0-0.0156,0.001-0.0322,0.0039-0.0508c0.0107-0.0781,0.0518-0.1387,0.125-0.1816
		c0.0625-0.0381,0.1338-0.0557,0.2148-0.0547c0.1406,0.0039,0.3311,0.0811,0.5723,0.2324c0.0693-0.0859,0.1035-0.1729,0.1035-0.2617
		c0-0.0439-0.0283-0.1455-0.084-0.3027l-0.2207,0.2012h-0.3906L14,12.1299c-0.0234-0.04-0.04-0.0732-0.0488-0.0996
		c-0.0166-0.0479-0.0264-0.1025-0.0273-0.1641l0.4805-0.5117c0.2158,0.0361,0.3242,0.1348,0.3242,0.2949
		c0,0.0938-0.0283,0.1807-0.084,0.2598c0.0479,0.1279,0.0967,0.2549,0.1465,0.3828c0.0596,0.1641,0.0898,0.2969,0.0898,0.3984
		c0,0.1123-0.0439,0.208-0.1328,0.2871H15.5273z"/>
	<path d="M17.0117,12.9775c-0.0342,0.1143-0.1045,0.1992-0.2109,0.2539c-0.0771,0.0391-0.1602,0.0586-0.25,0.0586h-0.7715
		c-0.1865,0-0.2793-0.0781-0.2793-0.2344c0-0.0439,0.0088-0.0918,0.0273-0.1426l0.3398-0.9512h0.709l-0.3613,1.0156H17.0117z
		 M16.8711,11.1611c0,0.1299-0.0508,0.2412-0.1514,0.332s-0.2227,0.1367-0.3643,0.1367c-0.1445,0-0.2676-0.0459-0.3682-0.1367
		s-0.1514-0.2021-0.1514-0.332c0-0.1289,0.0508-0.2393,0.1514-0.3301s0.2236-0.1367,0.3682-0.1367
		c0.1416,0,0.2637,0.0459,0.3643,0.1367S16.8711,11.0322,16.8711,11.1611z"/>
	<path d="M19.6035,12.9775c-0.0273,0.1084-0.0869,0.1904-0.1797,0.2461c-0.0732,0.0439-0.1504,0.0664-0.2324,0.0664H18.375
		c-0.1914,0-0.2871-0.0615-0.2871-0.1836c-0.1016,0.1221-0.2393,0.1836-0.4121,0.1836H17.332c-0.1055,0-0.1875-0.0273-0.2461-0.082
		c-0.0547-0.0508-0.082-0.1182-0.082-0.2012c0-0.0469,0.0088-0.0947,0.0273-0.1445l0.3281-0.9004h0.709l-0.3652,1.0156h0.3965
		l0.3633-1.0156h0.7012l-0.3555,1.0156H19.6035z"/>
	<path d="M22.2754,12.9775c-0.0322,0.1143-0.1074,0.1992-0.2246,0.2539c-0.082,0.0391-0.1699,0.0586-0.2637,0.0586h-0.7676
		c-0.1787,0-0.2676-0.0693-0.2676-0.207c0-0.043,0.0088-0.0898,0.0273-0.1406l0.2012-0.5449
		c-0.0596,0.0625-0.2988,0.2803-0.7168,0.6523c-0.1025,0.0938-0.1807,0.1553-0.2344,0.1836
		C19.959,13.2715,19.874,13.29,19.7754,13.29h-0.291l0.832-2.3555h0.7031L20.5,12.3936l0.7793-0.7754h0.4492l-0.4531,0.4688h0.1484
		c0.1807,0,0.2715,0.0693,0.2715,0.209c0,0.0439-0.0107,0.0957-0.0313,0.1543l-0.1914,0.5273H22.2754z"/>
</g>
<g>
	<path d="M36.457,15.9336c-0.166,0.5078-0.5625,0.7617-1.1914,0.7617h-2.9004l-0.918,2.4766h-1.7476l0.918-2.4766h-1.499
		c-1.6406,1.9302-3.2437,2.8945-4.8096,2.8945c-0.4556,0-0.8398-0.082-1.1523-0.2471c-0.394-0.21-0.5908-0.5171-0.5908-0.9238
		c0-0.3457,0.1465-0.6836,0.4395-1.0142c0.4722-0.5298,1.1865-0.9219,2.1436-1.1758c0.7485-0.1968,1.5757-0.2954,2.4805-0.2954
		h0.9473l2.9585-3.4614h2.3535l-1.2598,3.4614H36.457z M27.9175,16.6953c-1.2207,0-2.0767,0.1719-2.5684,0.5146
		c-0.4067,0.2856-0.6104,0.5889-0.6104,0.9092c0,0.2729,0.1465,0.4097,0.4395,0.4097c0.4038,0,0.9082-0.2222,1.5137-0.667
		C27.2227,17.478,27.6309,17.0894,27.9175,16.6953z M31.9063,13.2627l-2.1382,2.6709h1.0889L31.9063,13.2627z"/>
</g>
<g>
	<path d="M29.7383,22.6592c-0.0781-0.418-0.0039-0.9834,0.2246-1.6963l1.7344-5.4277l1.4004-0.3418l-1.7393,5.4424
		c-0.2324,0.7285-0.1104,1.168,0.3672,1.3213c0.3389,0.1084,0.6836,0.0537,1.0361-0.1611c0.2109-0.127,0.4697-0.3525,0.7744-0.6758
		c0.2188-0.2334,0.4063-0.3604,0.5625-0.3789c0.0205,0,0.0518,0.0068,0.0957,0.0215c0.0859,0.0273,0.2051,0.1338,0.3574,0.3184
		c0.1494,0.1855,0.2939,0.2988,0.4307,0.3428c0.4277,0.1367,0.8252-0.042,1.1914-0.5361c0.2432-0.3359,0.4521-0.7744,0.626-1.3174
		l0.0762-0.2373l-4.4844,0.1406l0.5352-1.6748l5.3086-0.1533l-0.7734,2.418c-0.2715,0.8506-0.627,1.5566-1.0664,2.1191
		c-0.6182,0.7871-1.2725,1.0703-1.9629,0.8496c-0.335-0.1074-0.6709-0.3457-1.0068-0.7168
		c-0.4766,0.498-0.8799,0.8516-1.2109,1.0645c-0.5508,0.3535-1.0537,0.457-1.5098,0.3105
		C30.1563,23.5156,29.834,23.1729,29.7383,22.6592z"/>
</g>
<line class="st0" x1="32" y1="7" x2="32" y2="8"/>
<g>
	<path d="M11.4419,7.2734l0.1445-0.6016l0.1914-0.9648c0.0298-0.1499,0.0449-0.2476,0.0449-0.293
		c0-0.0806-0.0386-0.1211-0.1152-0.1211c-0.1274,0-0.3218,0.1431-0.582,0.4292l0.0352-0.1792
		c0.2837-0.3071,0.5396-0.4609,0.7676-0.4609c0.1875,0,0.2813,0.0977,0.2813,0.293c0,0.0664-0.0151,0.1772-0.0449,0.332
		l-0.0957,0.4824h0.0293c0.1626-0.3335,0.3467-0.6011,0.5518-0.8037s0.396-0.3037,0.5728-0.3037
		c0.2139,0,0.3203,0.1187,0.3203,0.3555c0,0.0767-0.0107,0.1704-0.0332,0.2813l-0.1895,0.9531
		c-0.0293,0.1509-0.0449,0.2485-0.0449,0.293c0,0.082,0.0391,0.123,0.1152,0.123c0.1309,0,0.3252-0.1431,0.584-0.4292
		l-0.0371,0.1816c-0.2832,0.3057-0.5391,0.4585-0.7676,0.4585c-0.187,0-0.2808-0.0981-0.2808-0.2944
		c0-0.0654,0.0156-0.1758,0.0469-0.332l0.189-0.9561c0.0156-0.0742,0.0234-0.1362,0.0234-0.187
		c0-0.1055-0.0391-0.1582-0.1172-0.1582c-0.248,0-0.5933,0.394-1.0347,1.1816L11.854,7.25L11.4419,7.2734z"/>
	<path d="M15.6816,6.1895h-0.0352c-0.1494,0.3281-0.3271,0.5952-0.5332,0.8008s-0.3984,0.3086-0.5781,0.3086
		c-0.2764,0-0.4141-0.1724-0.4141-0.5176c0-0.2344,0.0674-0.48,0.2021-0.7363s0.3086-0.4722,0.5225-0.6465
		c0.1436-0.1157,0.2861-0.1938,0.4297-0.2334s0.3506-0.0596,0.623-0.0596c0.0771-0.2578,0.1572-0.4546,0.2402-0.5908
		s0.2002-0.2632,0.3516-0.3818c0.2578-0.2031,0.542-0.3047,0.8535-0.3047c0.1289,0,0.2461,0.0137,0.3516,0.041l-0.2676,0.2773
		c-0.1553-0.0679-0.2861-0.1016-0.3945-0.1016c-0.208,0-0.3652,0.0757-0.4707,0.2275s-0.2002,0.436-0.2832,0.8525l-0.3066,1.5469
		c-0.0313,0.1509-0.0469,0.2476-0.0469,0.2891c0,0.0845,0.0381,0.127,0.1152,0.127c0.1299,0,0.3252-0.1431,0.584-0.4297
		l-0.0371,0.1816c-0.2842,0.3062-0.5391,0.459-0.7656,0.459c-0.1885,0-0.2832-0.0981-0.2832-0.2949
		c0-0.064,0.0156-0.1743,0.0469-0.332L15.6816,6.1895z M15.8379,5.4082c-0.1611-0.0728-0.3242-0.1094-0.4883-0.1094
		c-0.2354,0-0.4248,0.1499-0.5664,0.4492c-0.168,0.354-0.252,0.6724-0.252,0.9551c0,0.2046,0.0605,0.3066,0.1816,0.3066
		c0.1123,0,0.2734-0.1177,0.4834-0.3535s0.3945-0.5044,0.5537-0.8066L15.8379,5.4082z"/>
	<path d="M16.9824,7.2734l0.1445-0.6011l0.1895-0.9541c0.0195-0.0962,0.0293-0.1792,0.0293-0.2495
		c0-0.1118-0.0391-0.168-0.1172-0.168c-0.1377,0-0.335,0.147-0.5918,0.4409l0.0352-0.1733
		c0.3008-0.3242,0.5615-0.4863,0.7832-0.4863c0.1875,0,0.2813,0.1074,0.2813,0.3223c0,0.0947-0.0117,0.2002-0.0352,0.3159
		l-0.0938,0.4702h0.0254c0.1553-0.3257,0.3379-0.5918,0.5498-0.7983s0.4053-0.3101,0.5811-0.3101
		c0.0908,0,0.1729,0.0205,0.2441,0.061l-0.2598,0.353c-0.0771-0.0508-0.1416-0.0762-0.1953-0.0762
		c-0.2539,0-0.5918,0.3726-1.0137,1.1182L17.3965,7.25L16.9824,7.2734z"/>
	<path d="M20.7871,6.7148l-0.0293,0.1504c-0.4141,0.2891-0.7666,0.4336-1.0586,0.4336c-0.1846,0-0.335-0.0645-0.4502-0.1943
		c-0.1152-0.1294-0.1729-0.2969-0.1729-0.5024c0-0.3667,0.1406-0.7119,0.4219-1.0352s0.5811-0.4849,0.9004-0.4849
		c0.1162,0,0.21,0.0391,0.2813,0.1172c0.0713,0.0776,0.1074,0.1792,0.1074,0.3042c0,0.2495-0.1279,0.4639-0.3828,0.6436
		c-0.2549,0.1792-0.5596,0.269-0.9141,0.269l-0.002,0.0879c0,0.3804,0.1396,0.5703,0.418,0.5703
		C20.1475,7.0742,20.4404,6.9546,20.7871,6.7148z M19.4941,6.2969c0.292-0.0234,0.5195-0.0986,0.6836-0.2256
		s0.2461-0.2915,0.2461-0.4932c0-0.1992-0.0723-0.2988-0.2168-0.2988c-0.1563,0-0.3076,0.104-0.4531,0.3115
		S19.5215,6.0337,19.4941,6.2969z"/>
	<path d="M22.0059,7.2988c0.0068-0.1289,0.0098-0.2573,0.0098-0.3848c0-0.5835-0.0313-0.9883-0.0947-1.2148
		s-0.1758-0.3398-0.3369-0.3398c-0.1523,0-0.3301,0.1587-0.5332,0.4766l0.0508-0.2656c0.2305-0.3257,0.4541-0.4883,0.6709-0.4883
		c0.4004,0,0.6006,0.5254,0.6006,1.5762l-0.0039,0.1992c0.4414-0.6304,0.6934-1.1997,0.7559-1.709l0.1816-0.043
		c0.1768,0.5718,0.2656,1.1401,0.2656,1.7051c0.1904-0.2461,0.3516-0.5054,0.4844-0.7773s0.1992-0.4785,0.1992-0.6191
		c0-0.082-0.0283-0.1772-0.0859-0.2852l0.4375-0.0234c0.0225,0.0601,0.0332,0.1152,0.0332,0.166
		c0,0.104-0.0596,0.2607-0.1797,0.4697s-0.3164,0.4976-0.5898,0.8662L23.7656,6.75l-0.3633,0.5l-0.1973,0.0488l0.0059-0.2363
		c0-0.5298-0.0332-0.9644-0.0996-1.3027C22.7979,6.4106,22.499,6.9077,22.2168,7.25L22.0059,7.2988z"/>
</g>
<g>
</g>
<g>
</g>
<g>
</g>
<g>
</g>
<g>
</g>
<g>
</g>
<g>
</g>
<g>
</g>
<g>
</g>
<g>
</g>
<g>
</g>
</svg>
