
<svg version="1.1" xmlns="http://www.w3.org/2000/svg" xmlns:xlink="http://www.w3.org/1999/xlink" x="0px" y="0px"
	 viewBox="0 0 213.6 212.1" style="enable-background:new 0 0 213.6 212.1;" xml:space="preserve">

<g>
	<path class="st0" d="M32.6,98.3l1.7-4.3v-4.9h2.1l6.4-15.6h4.3l6.2,15.6h2V94l1.8,4.6l-4.8,1.9l-2.5-6.2H40l-2.6,6.3L32.6,98.3z
		 M45,82.1l-2.9,7h5.7L45,82.1z"/>
</g>
<g>
	<path d="M68.2,88c0-1.8,0-3.3-0.1-4.7h2.8l0.2,2.9h0.1c0.9-1.7,2.9-3.3,5.8-3.3c2.4,0,6.2,1.4,6.2,7.4v10.4h-3.2v-10
		c0-2.8-1-5.1-4-5.1c-2.1,0-3.7,1.5-4.2,3.2c-0.1,0.4-0.2,0.9-0.2,1.5v10.5h-3.2V88z"/>
</g>
<g>
	<path d="M107.9,75.1v21.1c0,1.5,0,3.3,0.1,4.5h-2.8l-0.1-3H105c-1,1.9-3.1,3.4-5.9,3.4c-4.2,0-7.5-3.6-7.5-8.9
		c0-5.8,3.6-9.4,7.8-9.4c2.7,0,4.5,1.3,5.3,2.7h0.1V75.1H107.9z M104.8,90.3c0-0.4,0-0.9-0.1-1.3c-0.5-2-2.2-3.7-4.6-3.7
		c-3.3,0-5.2,2.9-5.2,6.7c0,3.5,1.7,6.4,5.1,6.4c2.1,0,4.1-1.4,4.6-3.8c0.1-0.4,0.1-0.9,0.1-1.4V90.3z"/>
</g>
<g>
	<path d="M122.8,88.7c0-2.1,0-3.8-0.1-5.4h2.8l0.1,3.4h0.1c0.8-2.3,2.7-3.8,4.8-3.8c0.4,0,0.6,0,0.9,0.1v3c-0.3-0.1-0.6-0.1-1.1-0.1
		c-2.2,0-3.8,1.7-4.2,4.1c-0.1,0.4-0.1,0.9-0.1,1.5v9.3h-3.1V88.7z"/>
</g>
<g>
	<path d="M142.7,92.5c0.1,4.3,2.8,6,6,6c2.3,0,3.6-0.4,4.8-0.9l0.5,2.3c-1.1,0.5-3,1.1-5.8,1.1c-5.4,0-8.6-3.6-8.6-8.8
		s3.1-9.4,8.2-9.4c5.7,0,7.2,5,7.2,8.2c0,0.6-0.1,1.2-0.1,1.5H142.7z M151.9,90.3c0-2-0.8-5.1-4.4-5.1c-3.2,0-4.6,3-4.9,5.1H151.9z"
		/>
</g>
<g>
	<path d="M165.1,83.2l2.3,8.9c0.5,1.9,1,3.7,1.3,5.5h0.1c0.4-1.8,1-3.6,1.5-5.5l2.8-8.9h2.7l2.7,8.7c0.6,2.1,1.2,3.9,1.5,5.7h0.1
		c0.3-1.8,0.8-3.6,1.3-5.7l2.5-8.7h3.1l-5.6,17.4h-2.9l-2.7-8.3c-0.6-1.9-1.1-3.7-1.5-5.7h-0.1c-0.4,2.1-1,3.9-1.6,5.8l-2.8,8.3
		h-2.9l-5.3-17.4H165.1z"/>
</g>
<g>
	<path d="M32.9,125.3l1.4,0.1h0.4v-4.8h-1.3v-5.8h1.3V109h-0.4h-1.4l-0.2-5.7l1.4-0.1c3.8-0.1,7.3-0.1,10.2-0.1c3.3,0,6,0,7.3,0.1
		H52c2.2,0.4,3.9,1.4,5,3.1c0.8,1.4,1.2,3,1.2,4.9c0,1.2,0,2.6-0.4,4.1c-0.4,1-0.8,1.8-1.4,2.5c-0.2,0.3-0.5,0.5-0.8,0.7
		c0.2,0.3,0.4,0.7,0.5,1.1c0.5,1.5,0.5,2.9,0.5,3.9c0,1.9-0.4,3.4-1.2,4.7c-1,1.5-2.7,2.6-4.8,2.9h-0.4c-0.7,0.1-3.2,0.1-7.1,0.1
		c-3,0-6,0-8.9-0.1l-1.5-0.1L32.9,125.3z M40.2,114.9c0.4,0,0.8,0,1.2,0.1h0.9c7.5-0.2,9.1-0.6,9.2-0.6c0.3-0.1,0.4-0.2,0.5-0.6
		c0.3-0.7,0.3-1.5,0.3-2.4c0-1-0.3-1.6-0.4-1.9c-0.1-0.2-0.4-0.3-0.9-0.5c-0.7,0-2.9-0.1-6.5-0.1c-1.4,0-2.8,0.1-4.3,0.1V114.9z
		 M50.1,121c-0.2-0.1-1.5-0.3-7.8-0.5h-0.2h-1.9v5h2.4c3.1,0,5.6-0.1,7-0.1c0.4-0.1,0.9-0.3,0.9-1.9C50.6,121.3,50.3,121.1,50.1,121
		z"/>
</g>
<g>
</g>
<g>
	<path d="M68.7,107.5c0-1.5-0.1-3-0.3-4.2h2.9l0.3,2.2h0.1c1-1.4,2.8-2.6,5.3-2.6c3.5,0,5.3,2.5,5.3,5c0,4.2-3.7,6.5-10.5,6.5v0.4
		c0,1.4,0.4,4,4,4c1.6,0,3.3-0.5,4.5-1.3l0.7,2.1c-1.4,0.9-3.5,1.5-5.7,1.5c-5.3,0-6.6-3.6-6.6-7.1V107.5z M71.8,112.2
		c3.5,0.1,7.4-0.5,7.4-3.9c0-2.1-1.4-3-3-3c-2.3,0-3.7,1.4-4.2,2.9c-0.1,0.3-0.2,0.7-0.2,1V112.2z"/>
</g>
<g>
	<path d="M106.7,106.6c-0.9-0.6-2.6-1.3-4.2-1.3c-2.3,0-3.4,1.2-3.4,2.6c0,1.5,0.9,2.3,3.2,3.2c3.1,1.1,4.6,2.8,4.6,4.9
		c0,2.8-2.3,5.1-6,5.1c-1.8,0-3.3-0.5-4.3-1.1l0.8-2.3c0.7,0.4,1.9,1,3.6,1c1.9,0,2.9-1.1,2.9-2.4c0-1.4-1-2.1-3.3-3
		c-3-1.2-4.6-2.7-4.6-5.3c0-3.1,2.4-5.3,6.5-5.3c1.9,0,3.7,0.5,4.9,1.2L106.7,106.6z"/>
</g>
<g>
	<path d="M124.4,127.6c-1.2,0-2-0.9-2-2c0-1.1,0.8-1.9,1.9-1.9c1.3,0,2.1,0.9,2,1.9C126.3,126.8,125.6,127.6,124.4,127.6z
		 M126,103.3v17.4h-3.2v-17.4H126z"/>
</g>
<g>
	<path d="M141.1,108.1c0-1.8,0-3.4-0.1-4.8h2.8l0.2,2.8h0.1c0.8-1.4,2.7-3.2,5.8-3.2c2.7,0,6,1.5,6,7.6v10.2h-3.2v-9.6
		c0-3.3-1-5.5-3.9-5.5c-2.1,0-3.6,1.5-4.2,2.9c-0.2,0.5-0.3,1-0.3,1.6v10.7h-3.2V108.1z"/>
</g>
<g>
	<path d="M170,128.9h-3.1v-25.6h3.1v6.6l1.6,1.8l6-8.4h3.9l-7.7,10.3l6.7,7.2h-3.8l-5.1-6c-0.5-0.6-1.1-1.4-1.5-2H170V128.9z"/>
</g>
<circle class="st1" cx="107.3" cy="106.1" r="103.9"/>

</svg>
