<!-- Ωgenerate svg on https://svgsprite.com/tools/svg-sprite-generator/ -->
<svg>
  <defs>
    <symbol class="logo" id="telegram" viewBox="0 0 32 32">
      <path d="M31.88 5.053l-4.813 22.733c-0.333 1.613-1.307 2-2.667 1.253l-7.333-5.427-3.547 3.427c-0.4 0.4-0.733 0.747-1.467 0.747-0.96 0-0.8-0.36-1.12-1.267l-2.533-8.253-7.267-2.267c-1.573-0.467-1.587-1.547 0.347-2.333l28.347-10.933c1.293-0.573 2.533 0.32 2.053 2.32z"></path>
    </symbol>

    <symbol class="logo" id="facebook" viewBox="0 0 32 32">
      <path class="logo" d="M19 6h5v-6h-5c-3.86 0-7 3.14-7 7v3h-4v6h4v16h6v-16h5l1-6h-6v-3c0-0.542 0.458-1 1-1z"></path>
    </symbol>

    <symbol class="logo" id="linkedin" viewBox="0 0 32 32">
      <path d="M12 12h5.535v2.837h0.079c0.77-1.381 2.655-2.837 5.464-2.837 5.842 0 6.922 3.637 6.922 8.367v9.633h-5.769v-8.54c0-2.037-0.042-4.657-3.001-4.657-3.005 0-3.463 2.218-3.463 4.509v8.688h-5.767v-18z"></path>
      <path d="M2 12h6v18h-6v-18z"></path>
      <path d="M8 7c0 1.657-1.343 3-3 3s-3-1.343-3-3c0-1.657 1.343-3 3-3s3 1.343 3 3z"></path>
    </symbol>

    <symbol id="gmail" viewBox="0 0 32 32">
      <path d="M32 6v20c0 1.133-0.867 2-2 2h-2v-18.151l-12 8.617-12-8.617v18.151h-2c-1.135 0-2-0.867-2-2v-20c0-0.567 0.216-1.067 0.575-1.424 0.359-0.363 0.86-0.576 1.425-0.576h0.667l13.333 9.667 13.333-9.667h0.667c0.567 0 1.067 0.216 1.425 0.576 0.36 0.357 0.575 0.857 0.575 1.424z"></path>
    </symbol>

    <symbol class="logo" id="git" viewBox="0 0 32 32">
      <title>git</title>
      <path d="M31.397 14.575l-13.972-13.971c-0.804-0.805-2.109-0.805-2.915 0l-3.246 3.246 2.443 2.443c0.392-0.187 0.83-0.293 1.293-0.293 1.657 0 3 1.343 3 3 0 0.463-0.105 0.902-0.293 1.293l3.999 3.999c0.392-0.187 0.83-0.293 1.293-0.293 1.657 0 3 1.343 3 3s-1.343 3-3 3-3-1.343-3-3c0-0.463 0.105-0.902 0.293-1.293l-3.999-3.999c-0.095 0.046-0.193 0.086-0.293 0.121v8.343c1.165 0.412 2 1.522 2 2.829 0 1.657-1.343 3-3 3s-3-1.343-3-3c0-1.306 0.835-2.417 2-2.829v-8.343c-1.165-0.412-2-1.522-2-2.829 0-0.463 0.105-0.902 0.293-1.293l-2.443-2.443-9.247 9.246c-0.805 0.806-0.805 2.11 0 2.915l13.973 13.971c0.804 0.805 2.109 0.805 2.915 0l13.906-13.906c0.805-0.805 0.805-2.111-0-2.915z"></path>
    </symbol>

    <symbol id="html" viewBox="0 0 32 32">
      <title>html</title>
      <path
            d="M1.892 0l2.567 28.801 11.524 3.199 11.554-3.204 2.572-28.796h-28.216zM24.52 9.42h-13.517l0.322 3.617h12.874l-0.97 10.844-7.245 2.008-7.237-2.008-0.495-5.547h3.547l0.252 2.82 3.933 1.060 0.009-0.002 3.935-1.062 0.408-4.58h-12.242l-0.953-10.681h17.694l-0.316 3.532z">
      </path>
    </symbol>

    <symbol id="css" viewBox="0 0 32 32">
      <title>css3</title>
      <path d="M4.762 1.516l-1.074 5.373h21.867l-0.684 3.47h-21.881l-1.059 5.372h21.865l-1.219 6.127-8.813 2.919-7.638-2.919 0.523-2.658h-5.372l-1.278 6.448 12.632 4.834 14.563-4.834 4.805-24.133z">
      </path>
    </symbol>

    <symbol id="js" viewBox="0 0 32 32">
      <title>javascript</title>
      <path
            d="M0 0h32v32h-32v-32zM29.379 24.368c-0.233-1.46-1.184-2.687-4.004-3.831-0.981-0.46-2.072-0.78-2.396-1.52-0.121-0.44-0.14-0.68-0.061-0.94 0.2-0.861 1.22-1.12 2.020-0.88 0.52 0.16 1 0.56 1.301 1.2 1.379-0.901 1.379-0.901 2.34-1.5-0.36-0.56-0.539-0.801-0.781-1.040-0.84-0.94-1.959-1.42-3.779-1.379l-0.94 0.119c-0.901 0.22-1.76 0.7-2.28 1.34-1.52 1.721-1.081 4.721 0.759 5.961 1.82 1.36 4.481 1.659 4.821 2.94 0.32 1.56-1.16 2.060-2.621 1.88-1.081-0.24-1.68-0.781-2.34-1.781l-2.44 1.401c0.28 0.64 0.6 0.919 1.080 1.479 2.32 2.341 8.12 2.221 9.161-1.339 0.039-0.12 0.32-0.94 0.099-2.2l0.061 0.089zM17.401 14.708h-2.997c0 2.584-0.012 5.152-0.012 7.74 0 1.643 0.084 3.151-0.184 3.615-0.44 0.919-1.573 0.801-2.088 0.64-0.528-0.261-0.796-0.621-1.107-1.14-0.084-0.14-0.147-0.261-0.169-0.261l-2.433 1.5c0.407 0.84 1 1.563 1.765 2.023 1.14 0.68 2.672 0.9 4.276 0.54 1.044-0.301 1.944-0.921 2.415-1.881 0.68-1.24 0.536-2.76 0.529-4.461 0.016-2.739 0-5.479 0-8.239l0.005-0.075z">
      </path>
    </symbol>

    <symbol id="npm" viewBox="0 0 32 32">
      <title>npm</title>
      <path
            d="M0 9.779v10.667h8.888v1.776h7.112v-1.776h16v-10.667h-32zM8.888 18.664h-1.776v-5.333h-1.78v5.333h-3.552v-7.108h7.108v7.108zM14.221 18.664v1.781h-3.553v-8.889h7.112v7.109l-3.559-0.001zM30.223 18.664h-1.773v-5.333h-1.781v5.333h-1.78v-5.333h-1.773v5.333h-3.561v-7.108h10.669v7.108z">
      </path>
      <path d="M14.22 13.333h1.78v3.556h-1.78v-3.556z"></path>
    </symbol>

    <symbol id="gulp" viewBox="0 0 32 32">
      <title>gulp</title>
      <path
            d="M20.208 25.909l0.848-1.445s-1.925 0.788-5.147 0.788c-3.224 0-5.12-0.757-5.12-0.757l0.948 1.577 0.336 4.972c0 0.537 1.752 0.957 3.915 0.957 2.164 0 3.917-0.419 3.917-0.957l0.305-5.113v-0.021zM21.028 16.515c-1.025 0.061-1.537 1.204-2.052 2.407-0.191 0.44-0.84 2.316-1.264 2.084-0.424-0.231 0.551-1.772 0.825-2.689-0.316 0.232-1.473 1.132-1.772 0.287-0.477 0.419-1.505 0.64-1.389-0.439-0.255 0.46-0.828 1.097-1.519 0.819-0.897-0.34 0.527-3.215 0.88-3.076 0.355 0.161-0.071 0.8-0.181 1.059-0.248 0.559-0.531 1.277-0.34 1.417 0.32 0.259 1.205-0.937 1.225-0.959 0.165-0.22 0.639-1.639 1.017-1.476 0.38 0.179-0.948 2.055-0.453 2.435 0.101 0.080 0.511-0.040 0.759-0.319 0.16-0.16 0.104-0.56 0.639-1.837 0.539-1.279 1.019-2.875 1.385-2.755s0.065 0.937-0.068 1.257c-0.619 1.437-1.691 3.792-1.187 3.613 0.499-0.18 0.759-0.18 1.257-0.759s0.46-1.536 0.799-1.516c0.32 0.019 0.28 0.339 0.2 0.557 0.32-0.36 1.536-1.157 1.817-0.379 0.339 0.917-1.739 2.256-1.219 2.176 0.5-0.060 1.317-0.579 1.677-1.057l0.959-8.667s-0.979 0.8-7.148 0.8-7.045-0.779-7.045-0.779l0.817 7.907c0.44-1.237 1.477-3.752 3.096-3.653 0.739 0.040 1.737 1.479 0.877 1.519-0.36 0.020-0.4-0.719-0.819-0.819-0.319-0.061-0.739 0.18-1.017 0.46-0.539 0.539-1.739 2.675-1.579 3.735 0.2 1.357 1.876-0.461 2.156-1 0.199-0.377 0.339-1.517 0.757-1.397 0.44 0.12-0.039 1.299-0.36 2.316-0.36 1.159-0.539 2.375-0.976 2.235-0.44-0.139 0.279-1.636 0.237-1.896-0.417 0.399-1.177 1.36-2.175 0.879l0.499 4.932s1.359 1.057 5.431 1.057 5.491-1.057 5.491-1.057l0.639-5.711c-0.519 0.52-2.156 1.417-2.256 0.4-0.079-0.819 1.777-1.997 1.299-2.019l0.080-0.092zM23.128 0.892l-3.545 3.733-0.648 2.535c2.508 0.16 4.252 0.515 4.252 0.925 0 0.559-3.219 1.009-7.188 1.009s-7.187-0.457-7.187-1.017c0-0.559 3.219-1.019 7.188-1.019 0.564 0 1.125 0 1.685 0.021l0.748-3.035 3.767-3.993c0.091-0.12 0.373-0.020 0.632 0.2 0.259 0.199 0.399 0.459 0.319 0.579v0.040l-0.023 0.021zM18.016 8.619s-0.697 0-0.813-0.107c-0.029-0.033-0.048-0.077-0.048-0.12 0-0.077 0.052-0.121 0.12-0.147l0.059 0.1c-0.028 0.008-0.039 0.020-0.044 0.031 0 0.055 0.419 0.092 0.74 0.088 0.319-0.004 0.708-0.031 0.711-0.085 0-0.016-0.031-0.031-0.081-0.044l0.060-0.096c0.084 0.027 0.156 0.077 0.156 0.161 0 0.147-0.188 0.171-0.307 0.188-0.143 0.020-0.549 0.031-0.549 0.031h-0.003z">
      </path>
    </symbol>

    <symbol id="git" viewBox="0 0 32 32">
      <title>git</title>
      <path
            d="M31.395 14.573l-13.972-13.971c-0.805-0.804-2.109-0.804-2.917 0l-2.895 2.9 3.68 3.68c0.86-0.287 1.839-0.093 2.519 0.588 0.688 0.687 0.877 1.677 0.584 2.533l3.544 3.547c0.86-0.297 1.849-0.104 2.533 0.58 0.961 0.96 0.961 2.512 0 3.472-0.959 0.959-2.508 0.959-3.467 0-0.719-0.721-0.899-1.783-0.539-2.661l-3.319-3.301v8.7c0.235 0.115 0.456 0.271 0.651 0.464 0.951 0.961 0.951 2.511 0 3.467-0.959 0.961-2.519 0.961-3.479 0-0.959-0.959-0.959-2.505 0-3.464 0.243-0.24 0.516-0.421 0.807-0.541v-8.785c-0.289-0.121-0.565-0.296-0.8-0.535-0.727-0.727-0.901-1.789-0.528-2.679l-3.616-3.633-9.581 9.575c-0.8 0.807-0.8 2.112 0 2.919l13.973 13.969c0.805 0.805 2.109 0.805 2.915 0l13.907-13.907c0.807-0.804 0.807-2.109 0-2.916z">
      </path>
    </symbol>

    <symbol id="sass" viewBox="0 0 32 32">
      <title>sass</title>
      <path
            d="M16 0c8.836 0 16 7.164 16 16s-7.164 16-16 16-16-7.164-16-16 7.164-16 16-16zM12.82 21.331c0.233 0.86 0.208 1.664-0.032 2.389l-0.087 0.24c-0.032 0.081-0.069 0.16-0.104 0.235-0.187 0.387-0.435 0.747-0.74 1.080-0.931 1.012-2.229 1.396-2.787 1.073-0.6-0.349-0.301-1.78 0.779-2.92 1.161-1.224 2.827-2.012 2.827-2.012v-0.004l0.144-0.081zM26.035 6.849c-0.723-2.844-5.436-3.779-9.896-2.193-2.652 0.943-5.525 2.424-7.591 4.356-2.457 2.295-2.848 4.295-2.687 5.131 0.569 2.948 4.609 4.876 6.271 6.307v0.008c-0.489 0.24-4.075 2.039-4.915 3.9-0.9 1.96 0.14 3.361 0.82 3.54 2.1 0.581 4.26-0.48 5.42-2.199 1.12-1.681 1.021-3.841 0.539-4.901 0.661-0.18 1.44-0.26 2.44-0.139 2.801 0.32 3.361 2.080 3.24 2.8-0.12 0.719-0.697 1.139-0.899 1.259-0.2 0.121-0.26 0.16-0.241 0.241 0.020 0.12 0.121 0.12 0.28 0.1 0.22-0.040 1.461-0.6 1.521-1.961 0.060-1.72-1.581-3.639-4.5-3.6-1.2 0.021-1.961 0.121-2.5 0.341-0.040-0.060-0.081-0.1-0.14-0.14-1.8-1.94-5.14-3.3-5-5.88 0.040-0.94 0.38-3.419 6.4-6.419 4.94-2.461 8.881-1.78 9.561-0.28 0.977 2.139-2.101 6.12-7.241 6.699-1.96 0.22-2.98-0.539-3.241-0.82-0.279-0.3-0.319-0.32-0.419-0.259-0.16 0.080-0.060 0.34 0 0.5 0.16 0.4 0.78 1.1 1.861 1.46 0.939 0.3 3.24 0.479 6-0.6 3.099-1.199 5.519-4.54 4.819-7.34l0.097 0.089z">
      </path>
    </symbol>

    <symbol id="svg" viewBox="0 0 32 32">
      <title>svg</title>
      <path
            d="M28.414 21.517v-13.805c0-0.423-0.051-0.735-0.303-0.989l-6.42-6.42c-0.193-0.193-0.46-0.303-0.733-0.303h-16.012c-0.654 0-1.359 0.505-1.359 1.614v19.903h24.828zM20.69 1.871c0-0.253 0.305-0.379 0.484-0.2l5.57 5.57c0.179 0.179 0.052 0.484-0.2 0.484h-5.853v-5.853zM6.897 9.379h3.31v1.103h3.31v-2.207h5.517v2.207h3.31v-1.103h3.31v3.31h-3.31v-1.103h-1.958c2.519 1.454 4.164 4.186 4.164 7.172 0 0.305-0.247 0.552-0.552 0.552s-0.552-0.247-0.552-0.552c0-2.894-1.782-5.517-4.414-6.618v1.652h-5.517v-1.652c-2.632 1.102-4.414 3.724-4.414 6.618 0 0.305-0.247 0.552-0.552 0.552s-0.552-0.247-0.552-0.552c0-2.986 1.645-5.718 4.164-7.172h-1.958v1.103h-3.31v-3.31z">
      </path>
      <path
            d="M3.586 22.621v8.276c0 0.557 0.673 1.103 1.359 1.103h22.11c0.686 0 1.359-0.547 1.359-1.103v-8.276h-24.828zM12.266 28.854c-0.083 0.189-0.2 0.355-0.351 0.498s-0.337 0.258-0.558 0.343-0.472 0.128-0.754 0.128c-0.121 0-0.245-0.007-0.374-0.019s-0.258-0.034-0.388-0.064-0.255-0.072-0.374-0.125-0.22-0.117-0.306-0.193l0.158-0.649c0.071 0.040 0.159 0.079 0.268 0.117s0.22 0.073 0.335 0.105 0.231 0.059 0.347 0.079 0.223 0.030 0.324 0.030c0.307 0 0.542-0.072 0.705-0.215s0.245-0.356 0.245-0.637c0-0.171-0.057-0.317-0.173-0.438s-0.26-0.23-0.434-0.328-0.361-0.196-0.562-0.294-0.39-0.214-0.566-0.347-0.322-0.29-0.438-0.471-0.173-0.407-0.173-0.679c0-0.246 0.045-0.465 0.136-0.656s0.212-0.354 0.366-0.487 0.332-0.235 0.536-0.306 0.419-0.105 0.645-0.105c0.231 0 0.465 0.022 0.701 0.064s0.427 0.112 0.573 0.207c-0.030 0.065-0.065 0.137-0.105 0.215s-0.078 0.151-0.113 0.218-0.065 0.125-0.090 0.17-0.040 0.071-0.045 0.076c-0.030-0.015-0.064-0.035-0.102-0.060s-0.092-0.050-0.162-0.076-0.163-0.042-0.279-0.053-0.264-0.008-0.445 0.008c-0.101 0.010-0.196 0.039-0.287 0.087s-0.171 0.106-0.242 0.177-0.126 0.15-0.166 0.238-0.060 0.173-0.060 0.253c0 0.201 0.057 0.363 0.173 0.487s0.259 0.231 0.43 0.324 0.357 0.184 0.558 0.271 0.388 0.195 0.562 0.321 0.318 0.283 0.434 0.471 0.173 0.431 0.173 0.728c0.002 0.201-0.039 0.396-0.122 0.585zM15.997 29.823h-1.177l-1.727-5.59h1.033l1.29 4.797 1.366-4.797h1.026l-1.81 5.59zM22.989 29.076c-0.116 0.146-0.245 0.265-0.388 0.358s-0.294 0.17-0.452 0.23-0.322 0.103-0.49 0.129-0.335 0.038-0.502 0.038c-0.332 0-0.637-0.060-0.916-0.181s-0.523-0.299-0.732-0.536-0.372-0.533-0.49-0.89-0.177-0.77-0.177-1.237 0.059-0.879 0.177-1.233 0.282-0.65 0.49-0.886 0.454-0.416 0.735-0.54 0.586-0.185 0.913-0.185c0.302 0 0.584 0.050 0.845 0.151s0.495 0.252 0.701 0.452l-0.626 0.558c-0.121-0.146-0.259-0.252-0.415-0.317s-0.317-0.098-0.483-0.098c-0.186 0-0.363 0.035-0.532 0.105s-0.319 0.19-0.452 0.358-0.238 0.386-0.313 0.653-0.116 0.593-0.121 0.98c0.005 0.377 0.044 0.704 0.117 0.98s0.173 0.503 0.302 0.679 0.274 0.307 0.438 0.392 0.335 0.128 0.517 0.128c0.056 0 0.129-0.004 0.222-0.012s0.186-0.020 0.279-0.038 0.182-0.041 0.268-0.072 0.148-0.073 0.189-0.128v-1.373h-0.943v-0.618h1.841v2.151z">
      </path>
    </symbol>

    <symbol id="canvas" viewBox="0 0 109 32">
      <title>canvas</title>
      <path
            d="M55.338 16.306c0 1.427-0.102 3.567-2.038 3.567-1.019 0-1.732-0.713-1.732-1.732-0.102-1.834 2.548-1.834 3.771-1.834zM52.076 13.35c0-0.51 0.408-1.732 1.631-1.732s1.631 1.019 1.631 1.529v1.121c-1.427 0-3.261 0-4.688 0.611-2.14 0.917-2.548 2.955-2.548 3.771 0 2.344 1.631 3.669 3.975 3.669 1.631 0 2.853-0.611 3.669-1.936v0c0 0.51 0 1.019 0.102 1.631h3.261c0-0.408-0.102-0.713-0.204-1.325v-6.522c0-3.567-2.752-4.484-5.096-4.484-1.325 0-2.548 0.204-3.567 0.815-0.917 0.51-1.631 1.529-1.631 2.955h3.465z">
      </path>
      <path
            d="M92.943 16.306c0 1.427-0.102 3.567-2.038 3.567-1.019 0-1.732-0.713-1.732-1.732 0-1.834 2.548-1.834 3.771-1.834zM89.682 13.35c0-0.51 0.408-1.732 1.631-1.732s1.631 1.019 1.631 1.529v1.121c-1.427 0-3.261 0-4.688 0.611-2.14 0.917-2.548 2.955-2.548 3.771 0 2.344 1.631 3.669 3.873 3.669 1.631 0 2.853-0.611 3.669-1.936v0c0 0.51 0 1.019 0.102 1.631h3.261c0-0.408-0.102-0.713-0.204-1.325v-6.522c0-3.567-2.752-4.484-5.096-4.484-1.325 0-2.548 0.204-3.567 0.815-0.917 0.51-1.631 1.529-1.631 2.955h3.567z">
      </path>
      <path
            d="M64.713 9.987h-3.567v12.025h3.567v-7.236c0-1.732 1.019-2.752 2.14-2.752 1.732 0 2.14 1.427 2.14 2.752v7.236h3.567v-7.847c0-0.408 0-1.121-0.204-1.936-0.408-1.732-2.752-2.65-3.975-2.65-1.834 0-2.955 0.713-3.669 1.834v-1.427z">
      </path>
      <path
            d="M108.127 13.146c-0.204-2.65-2.344-3.567-4.892-3.567-2.14 0-5.096 1.121-5.096 3.567 0 2.752 2.14 3.261 4.382 3.873 0.713 0.204 2.446 0.611 2.446 1.529s-0.713 1.325-1.732 1.325c-1.019 0-1.936-0.51-1.936-1.427h-3.363c0 2.752 2.446 3.873 5.299 3.873 2.242 0 5.401-1.325 5.401-3.975 0-4.484-6.828-3.465-6.828-5.299 0-0.815 0.408-1.121 1.427-1.121 0.815 0 1.529 0.408 1.631 1.121h3.261z">
      </path>
      <path
            d="M46.879 14.166c0-2.854-2.242-4.586-5.299-4.586-3.567 0-5.401 3.159-5.401 6.318s1.834 6.318 5.401 6.318c3.261 0 5.197-1.631 5.299-4.688h-3.465c0 1.019-0.408 2.344-1.834 2.344-1.529 0-1.631-2.955-1.631-4.178 0-0.917 0.102-3.771 1.631-3.771 1.427 0 1.834 1.223 1.834 2.14h3.465z">
      </path>
      <path
            d="M77.452 22.013h3.975l4.382-12.025h-3.465l-2.752 8.153-2.752-8.153h-3.771l4.382 12.025z"></path>
      <path
            d="M31.389 0.611h-30.777v30.879h30.879v-30.879zM22.115 22.115h-12.331v-12.331h12.331v12.331z"></path>
    </symbol>

    <symbol id="vue" viewBox="0 0 32 32">
      <title>vue js</title>
      <path
            d="M25.596 2.144l0.004-0.008h-5.9l-3.7 6.4-3.696-6.4h-5.9v0.007h-6.404l16 27.715 16-27.713z"></path>
    </symbol>

    <symbol id="react" viewBox="0 0 32 32">
      <title>react</title>
      <path
            d="M18.852 16c0 1.575-1.277 2.852-2.852 2.852s-2.852-1.277-2.852-2.852c0-1.575 1.277-2.852 2.852-2.852s2.852 1.277 2.852 2.852z">
      </path>
      <path
            d="M8.011 21.673l-0.629-0.16c-4.691-1.185-7.381-3.197-7.381-5.519s2.691-4.333 7.381-5.519l0.629-0.159 0.177 0.624c0.545 1.86 1.163 3.443 1.899 4.957l-0.082-0.186 0.135 0.284-0.135 0.284c-0.656 1.329-1.275 2.912-1.761 4.551l-0.056 0.22-0.177 0.623zM7.089 11.933c-3.565 1.001-5.753 2.533-5.753 4.061 0 1.527 2.188 3.059 5.753 4.061 0.512-1.62 1.046-2.965 1.662-4.263l-0.086 0.202c-0.531-1.098-1.066-2.443-1.511-3.828l-0.065-0.234zM23.989 21.673l-0.177-0.625c-0.544-1.859-1.162-3.441-1.9-4.954l0.081 0.184-0.135-0.284 0.135-0.284c0.656-1.329 1.275-2.911 1.762-4.55l0.056-0.221 0.177-0.624 0.631 0.159c4.689 1.185 7.38 3.197 7.38 5.52s-2.691 4.333-7.38 5.519l-0.631 0.16zM23.335 15.995c0.64 1.385 1.169 2.747 1.576 4.061 3.567-1.003 5.753-2.535 5.753-4.061 0-1.528-2.188-3.059-5.753-4.061-0.511 1.619-1.045 2.963-1.662 4.262l0.086-0.2z">
      </path>
      <path
            d="M7.080 11.927l-0.177-0.623c-1.319-4.648-0.919-7.979 1.097-9.141 1.977-1.141 5.152 0.207 8.479 3.621l0.453 0.465-0.453 0.465c-1.146 1.19-2.207 2.482-3.162 3.853l-0.068 0.103-0.18 0.257-0.313 0.027c-1.875 0.151-3.596 0.439-5.264 0.86l0.218-0.047-0.629 0.159zM9.608 3.087c-0.357 0-0.673 0.077-0.94 0.231-1.325 0.764-1.56 3.42-0.647 7.004 1.21-0.285 2.681-0.521 4.18-0.658l0.131-0.010c0.894-1.264 1.792-2.37 2.756-3.414l-0.020 0.022c-2.080-2.025-4.049-3.175-5.46-3.175zM22.393 30.236c-0.001 0-0.001 0 0 0-1.9 0-4.34-1.431-6.872-4.031l-0.453-0.465 0.453-0.465c1.146-1.19 2.206-2.482 3.16-3.854l0.068-0.103 0.18-0.257 0.312-0.027c1.875-0.15 3.597-0.438 5.267-0.858l-0.218 0.046 0.629-0.159 0.179 0.624c1.316 4.645 0.917 7.977-1.099 9.139-0.449 0.259-0.988 0.411-1.562 0.411-0.016 0-0.031-0-0.047-0l0.002 0zM16.932 25.728c2.080 2.025 4.049 3.175 5.46 3.175h0.001c0.356 0 0.673-0.077 0.939-0.231 1.325-0.764 1.561-3.421 0.647-7.005-1.212 0.286-2.682 0.522-4.182 0.658l-0.13 0.010c-0.893 1.265-1.791 2.371-2.755 3.416l0.020-0.022z">
      </path>
      <path
            d="M24.92 11.927l-0.629-0.159c-1.453-0.376-3.175-0.664-4.939-0.806l-0.111-0.007-0.312-0.027-0.18-0.257c-1.021-1.474-2.082-2.766-3.237-3.966l0.009 0.010-0.453-0.465 0.453-0.465c3.325-3.413 6.499-4.761 8.479-3.621 2.016 1.163 2.416 4.493 1.099 9.14l-0.179 0.624zM19.667 9.653c1.523 0.139 2.969 0.364 4.312 0.668 0.915-3.584 0.679-6.24-0.647-7.004-1.317-0.761-3.793 0.405-6.4 2.944 0.943 1.022 1.841 2.128 2.666 3.289l0.069 0.103zM9.608 30.236c-0.014 0-0.030 0-0.046 0-0.574 0-1.113-0.152-1.577-0.419l0.015 0.008c-2.016-1.161-2.416-4.492-1.097-9.139l0.176-0.624 0.629 0.159c1.54 0.388 3.239 0.661 5.047 0.812l0.313 0.027 0.179 0.257c1.022 1.475 2.083 2.767 3.239 3.967l-0.010-0.010 0.453 0.465-0.453 0.465c-2.531 2.6-4.971 4.031-6.868 4.031zM8.021 21.667c-0.915 3.584-0.679 6.241 0.647 7.005 1.316 0.751 3.791-0.407 6.4-2.944-0.943-1.022-1.841-2.129-2.667-3.29l-0.069-0.103c-1.629-0.146-3.099-0.382-4.534-0.711l0.224 0.043z">
      </path>
      <path
            d="M16 22.504c-1.097 0-2.225-0.048-3.355-0.141l-0.313-0.027-0.18-0.257c-0.544-0.768-1.139-1.691-1.697-2.639l-0.103-0.19c-0.452-0.758-0.971-1.732-1.45-2.728l-0.105-0.243-0.133-0.284 0.133-0.284c0.584-1.239 1.102-2.212 1.658-3.161l-0.103 0.191c0.552-0.955 1.159-1.907 1.8-2.829l0.18-0.257 0.313-0.027c1.005-0.090 2.174-0.142 3.355-0.142s2.35 0.052 3.505 0.153l-0.15-0.011 0.312 0.027 0.179 0.257c1.177 1.666 2.294 3.567 3.252 5.56l0.104 0.24 0.135 0.284-0.135 0.284c-1.058 2.232-2.176 4.133-3.439 5.925l0.083-0.125-0.179 0.257-0.312 0.027c-1.129 0.093-2.259 0.141-3.356 0.141zM13.071 21.059c1.973 0.148 3.885 0.148 5.86 0 1.004-1.445 1.978-3.104 2.827-4.836l0.101-0.228c-0.947-1.958-1.922-3.617-3.012-5.19l0.083 0.126c-0.877-0.071-1.898-0.111-2.929-0.111s-2.052 0.040-3.063 0.119l0.134-0.008c-1.008 1.447-1.983 3.106-2.83 4.84l-0.099 0.224c0.951 1.96 1.926 3.619 3.014 5.193l-0.085-0.13z">
      </path>
    </symbol>

<!--    <symbol id="php" viewBox="0 0 32 32">-->
<!--      <title>php</title>-->
<!--      <path-->
<!--            d="M9.347 13.609h-1.259l-0.687 3.531h1.117c0.741 0 1.293-0.14 1.656-0.419 0.363-0.28 0.607-0.745 0.733-1.399 0.123-0.627 0.067-1.069-0.165-1.327-0.233-0.257-0.697-0.387-1.396-0.387z">-->
<!--      </path>-->
<!--      <path-->
<!--            d="M16 7.584c-8.836 0-16 3.768-16 8.416s7.164 8.417 16 8.417 16-3.769 16-8.417c0-4.648-7.164-8.416-16-8.416zM11.653 17.519c-0.348 0.333-0.767 0.584-1.223 0.735-0.448 0.144-1.020 0.219-1.713 0.219h-1.575l-0.436 2.241h-1.837l1.64-8.435h3.533c1.063 0 1.837 0.279 2.325 0.837 0.488 0.557 0.635 1.336 0.44 2.336-0.082 0.425-0.223 0.803-0.416 1.148l0.010-0.019c-0.191 0.34-0.44 0.653-0.748 0.937zM17.019 18.472l0.724-3.732c0.084-0.424 0.052-0.715-0.091-0.868-0.143-0.155-0.448-0.232-0.916-0.232h-1.456l-0.939 4.833h-1.824l1.64-8.436h1.823l-0.436 2.243h1.624c1.023 0 1.727 0.179 2.115 0.535s0.504 0.933 0.351 1.732l-0.763 3.925h-1.852zM27.148 15.452c-0.080 0.425-0.221 0.803-0.416 1.148l0.010-0.018c-0.191 0.34-0.44 0.653-0.748 0.937-0.338 0.323-0.746 0.574-1.2 0.728l-0.023 0.007c-0.448 0.144-1.020 0.219-1.715 0.219h-1.573l-0.436 2.243h-1.837l1.64-8.435h3.532c1.063 0 1.837 0.279 2.325 0.837 0.488 0.556 0.636 1.335 0.441 2.335z">-->
<!--      </path>-->
<!--      <path-->
<!--            d="M23.688 13.609h-1.257l-0.688 3.531h1.117c0.743 0 1.295-0.14 1.656-0.419 0.363-0.28 0.607-0.745 0.735-1.399 0.123-0.627 0.065-1.069-0.167-1.327s-0.699-0.387-1.396-0.387z">-->
<!--      </path>-->
<!--    </symbol>-->

    <symbol id="wordpress" viewBox="0 0 32 32">
      <title>wordpress</title>
      <path
            d="M28.625 9.1c1.12 2.049 1.757 4.4 1.757 6.9 0 5.305-2.875 9.941-7.151 12.433l4.393-12.703c0.82-2.053 1.093-3.695 1.093-5.152 0-0.54-0.035-1.040-0.093-1.48zM17.984 9.239c0.863-0.040 1.643-0.14 1.643-0.14 0.776-0.1 0.685-1.24-0.089-1.199 0 0-2.34 0.18-3.84 0.18-1.419 0-3.8-0.2-3.8-0.2-0.78-0.040-0.881 1.14-0.1 1.18 0 0 0.72 0.081 1.5 0.12l2.24 6.14-3.16 9.44-5.239-15.56c0.865-0.040 1.645-0.133 1.645-0.133 0.78-0.1 0.688-1.24-0.087-1.195 0 0-2.328 0.184-3.832 0.184-0.267 0-0.584-0.011-0.92-0.020 2.603-3.836 7.035-6.416 12.055-6.416 3.745 0 7.153 1.429 9.715 3.777-0.061-0.004-0.121-0.012-0.188-0.012-1.413 0-2.416 1.231-2.416 2.552 0 1.187 0.684 2.191 1.413 3.375 0.548 0.96 1.187 2.191 1.187 3.969 0 1.22-0.472 2.659-1.095 4.639l-1.433 4.78-5.2-15.48 0.001 0.019zM16 30.379c-1.412 0-2.775-0.204-4.064-0.583l4.316-12.541 4.42 12.116c0.032 0.071 0.067 0.135 0.104 0.199-1.493 0.524-3.1 0.812-4.776 0.812zM1.615 16c0-2.085 0.448-4.067 1.247-5.853l6.859 18.799c-4.795-2.332-8.104-7.251-8.105-12.945zM16 0c-8.82 0-16 7.18-16 16s7.18 16 16 16 16-7.18 16-16-7.18-16-16-16z">
      </path>
    </symbol>

    <symbol id="bootstrap" viewBox="0 0 32 32">
      <title>bootstrap</title>
      <path
            d="M26.667 0h-21.333c-2.943 0.008-5.325 2.391-5.333 5.333v21.333c0 2.933 2.4 5.333 5.333 5.333h21.333c2.933 0 5.333-2.4 5.333-5.333v-21.333c0-2.933-2.4-5.333-5.333-5.333zM23.751 22.473c-0.267 0.643-0.689 1.209-1.231 1.645-0.56 0.453-1.269 0.827-2.143 1.093-0.872 0.271-1.909 0.407-3.111 0.407h-8.576v-18.667h9.069c1.677 0 3.021 0.377 4.027 1.147 1.013 0.773 1.517 1.925 1.517 3.48 0 0.94-0.229 1.747-0.691 2.413-0.459 0.663-1.12 1.181-1.973 1.541v0.061c1.139 0.24 2.020 0.78 2.6 1.62s0.877 1.901 0.877 3.183c0 0.717-0.139 1.4-0.4 2.037l0.033 0.036zM20.049 17.873c-0.547-0.5-1.315-0.744-2.307-0.744h-5.763v5.824h5.779c0.987 0 1.76-0.256 2.307-0.773 0.547-0.513 0.827-1.245 0.827-2.187-0.009-0.92-0.28-1.632-0.827-2.12h-0.023zM19.249 14.109c0.528-0.448 0.787-1.089 0.787-1.925 0-0.939-0.233-1.605-0.707-1.987-0.469-0.38-1.147-0.577-2.037-0.577h-5.333v5.151h5.333c0.777 0 1.44-0.227 1.952-0.661z">
      </path>
    </symbol>

    <symbol id="zeplin" viewBox="0 0 40 32">
      <title>zeplin</title>
      <path d="M6.171 22.063l-2.094 0.765-0.111 6.229 7.249-2.648c-2.488-0.833-4.303-2.302-5.043-4.346z"></path>
      <path d="M19.495 6.484c-9.253 3.38-15.22 10.356-13.324 15.579l33.509-12.241c-1.896-5.223-10.932-6.718-20.185-3.338z"></path>
      <path d="M26.355 25.403c9.253-3.38 15.23-10.325 13.324-15.579l-33.509 12.239c1.906 5.256 10.932 6.72 20.185 3.34z"></path>
      <path d="M7.267 15.474l-7.267 2.655 4.077 4.701 2.094-0.765c-0.739-2.038-0.283-4.338 1.096-6.59z"></path>
      <path d="M39.678 9.822l-33.507 12.241c0.655 1.81 3.159 2.701 6.668 2.701 3.423 0 7.805-0.847 12.372-2.515 9.253-3.38 15.762-8.854 14.466-12.427z"></path>
      <path d="M33.010 7.123c-3.422 0-7.805 0.847-12.372 2.515-9.253 3.38-15.762 8.852-14.466 12.425l33.509-12.241c-0.657-1.81-3.159-2.7-6.67-2.7z"></path>
      <path d="M31.158 29.389c-0.986 0-2.44-0.89-4.323-2.646-2.227-2.078-4.777-5.122-7.184-8.57-2.405-3.448-4.381-6.895-5.566-9.707-1.289-3.064-1.474-4.947-0.547-5.599 0.215-0.146 0.469-0.221 0.729-0.215 0.754 0 2.224 0.561 4.94 3.235l0.060 0.058-0.008 0.083c-0.018 0.193-0.035 0.386-0.050 0.577l-0.030 0.378-0.266-0.268c-2.928-2.949-4.215-3.267-4.634-3.267-0.12 0-0.215 0.023-0.283 0.072-0.403 0.283-0.429 1.667 0.822 4.636 1.163 2.761 3.111 6.156 5.484 9.559 2.375 3.405 4.887 6.402 7.076 8.443 2.359 2.201 3.422 2.439 3.769 2.439 0.12 0 0.216-0.025 0.289-0.076 0.424-0.298 0.424-1.78-0.97-4.977l-0.065-0.146 0.14-0.076c0.14-0.076 0.276-0.151 0.403-0.225l0.168-0.095 0.078 0.176c0.988 2.266 1.913 5.145 0.7 5.996-0.215 0.146-0.471 0.221-0.732 0.215zM31.158 29.039v0.175z"></path>
      <path d="M26.579 25.307l-0.013 0.173c-0.235 2.894-0.85 6.374-2.457 6.515-0.033 0.003-0.067 0.003-0.098 0.003-1.091 0-2.124-1.564-3.067-4.646-0.895-2.918-1.589-6.833-1.953-11.026-0.366-4.193-0.361-8.171 0.015-11.2 0.409-3.3 1.188-5.023 2.315-5.123 0.033-0.003 0.068-0.005 0.101-0.005 0.792 0 1.984 0.897 3.205 5.072l-0.797 0.153c-0.408-1.394-0.852-2.528-1.292-3.31-0.408-0.72-0.805-1.118-1.116-1.118-0.010 0-0.020 0-0.032 0.002-0.489 0.043-1.201 1.228-1.597 4.428-0.369 2.974-0.374 6.893-0.013 11.031 0.361 4.14 1.043 7.997 1.921 10.862 0.393 1.282 0.823 2.34 1.248 3.057 0.389 0.662 0.767 1.026 1.061 1.026 0.010 0 0.020 0 0.030-0.002 0.467-0.040 1.349-1.274 1.72-5.614z"></path>
    </symbol>

    <symbol id="illustrator" viewBox="0 0 32 32">
      <title>illustrator</title>
      <path d="M0 0.4v31.2h32v-31.2zM1.333 1.733h29.333v28.533h-29.333zM11.1 18.067l-1.056 3.997c-0.023 0.111-0.067 0.136-0.197 0.136h-1.957c-0.133 0-0.153-0.044-0.133-0.197l3.787-13.26c0.067-0.24 0.109-0.451 0.131-1.111 0-0.088 0.044-0.133 0.111-0.133h2.795c0.088 0 0.133 0.024 0.155 0.133l4.247 14.392c0.023 0.111 0 0.176-0.111 0.176h-2.2c-0.111 0-0.176-0.027-0.197-0.115l-1.1-4.020zM14.817 15.9c-0.373-1.475-1.253-4.704-1.584-6.267h-0.023c-0.285 1.56-0.989 4.2-1.54 6.267zM20.817 8.489c0-0.857 0.593-1.364 1.364-1.364 0.813 0 1.364 0.549 1.364 1.364 0 0.88-0.573 1.364-1.387 1.364-0.8 0-1.347-0.484-1.341-1.364zM20.967 11.521c0-0.107 0.044-0.147 0.155-0.147h2.093c0.117 0 0.16 0.044 0.16 0.155v10.527c0 0.111-0.021 0.155-0.153 0.155h-2.067c-0.133 0-0.177-0.067-0.177-0.173z"></path>
    </symbol>

    <symbol id="photoshop" viewBox="0 0 32 32">
      <title>photoshops</title>
      <path d="M0 0.4v31.2h32v-31.2zM1.333 1.733h29.333v28.533h-29.333zM7.733 7.707c0-0.089 0.187-0.155 0.299-0.155 0.859-0.044 2.117-0.067 3.437-0.067 3.696 0 5.133 2.027 5.133 4.621 0 3.387-2.456 4.84-5.469 4.84-0.507 0-0.68-0.023-1.033-0.023v5.123c0 0.111-0.044 0.155-0.153 0.155h-2.059c-0.111 0-0.153-0.040-0.153-0.151zM10.1 14.789c0.307 0.021 0.549 0.021 1.080 0.021 1.56 0 3.027-0.549 3.027-2.661 0-1.693-1.048-2.552-2.829-2.552-0.528 0-1.033 0.021-1.276 0.044zM21.576 13.205c-1.056 0-1.408 0.528-1.408 0.968 0 0.484 0.24 0.813 1.649 1.54 2.091 1.013 2.749 1.98 2.749 3.409 0 2.133-1.627 3.28-3.827 3.28-1.168 0-2.16-0.244-2.733-0.573-0.087-0.044-0.107-0.109-0.107-0.22v-1.956c0-0.133 0.064-0.177 0.152-0.112 0.832 0.551 1.803 0.792 2.683 0.792 1.056 0 1.496-0.44 1.496-1.035 0-0.484-0.307-0.903-1.649-1.607-1.893-0.907-2.685-1.827-2.685-3.369 0-1.716 1.341-3.147 3.673-3.147 1.147 0 1.952 0.176 2.392 0.373 0.109 0.067 0.133 0.176 0.133 0.264v1.827c0 0.111-0.067 0.177-0.2 0.133-0.592-0.352-1.467-0.573-2.319-0.568z"></path>
    </symbol>

    <symbol id="angular" viewBox="0 0 32 32">
      <title>angular</title>
      <path d="M13.24 16.86h5.512l-2.757-6.54zM15.995 0.012l-15.080 5.305 2.3 19.68 12.78 6.991 12.784-6.984 2.299-19.684zM25.405 24.408h-3.515l-1.893-4.668h-8.004l-1.893 4.668h-3.517l9.413-20.864z"></path>
    </symbol>

    <symbol id="webstorm" viewBox="0 0 32 32">
      <title>webstorm</title>
      <path d="M0 0v32h32v-32zM23.852 3.852c1.925 0 3.556 0.592 4.889 1.704l-1.481 2.223c-1.185-0.815-2.296-1.333-3.408-1.333s-1.704 0.519-1.704 1.185v0.075c0 0.889 0.592 1.185 2.815 1.777 2.667 0.741 4.148 1.704 4.148 4v0.075c0 2.667-2 4.148-4.815 4.148-2-0.075-4-0.815-5.556-2.223l1.704-2.075c1.185 0.963 2.444 1.629 3.925 1.629 1.185 0 1.852-0.444 1.852-1.259v-0.075c0-0.741-0.444-1.111-2.667-1.704-2.667-0.667-4.296-1.408-4.296-4.075v-0.075c0-2.444 1.925-4 4.593-3.999zM2.371 4.148h3.037l2 7.704 2.296-7.704h2.223l2.223 7.704 2-7.704h3.111l-3.777 13.259h-2.519l-2.148-7.704-2.223 7.704h-2.444zM3.037 26h12v2h-12z"></path>
    </symbol>

    <symbol id="rxjs" viewBox="0 0 30 32">
      <title>rxjs</title>
      <path  d="M1.816 19.621c-0.611-1.904-0.788-3.915-0.435-5.984 0.153-0.858 0.388-1.681 0.647-2.516 0 0 1.622-5.325 7.112-7.759 0 0 1.893-0.999 4.738-1.070 0 0-0.388-0.376-0.635-0.541-1.34-0.893-3.339-1.187-4.55 0.071-0.364 0.376-0.67 0.788-1.011 1.164-0.388 0.423-0.858 0.776-1.399 0.976-0.47 0.176-0.941 0.141-1.422 0.223-0.494 0.082-0.999 0.259-1.399 0.576-0.435 0.353-0.611 0.823-0.658 1.364-0.047 0.423-0.035 0.858-0.059 1.281-0.059 1.246-0.458 1.599-1.352 2.292-0.376 0.282-0.694 0.658-0.929 1.058-0.705 1.246 0.423 2.539 0.482 3.797 0.012 0.259-0.012 0.517-0.106 0.764-0.094 0.27-0.282 0.447-0.435 0.67-0.212 0.294-0.353 0.647-0.294 1.011s0.247 0.705 0.423 1.023c0.341 0.564 0.764 1.070 1.211 1.552 0.024 0 0.047 0.023 0.071 0.047z"></path>
      <path  d="M24.247 24.135c2.704-1.176 3.856-3.209 3.856-3.209 2.528-3.445 1.669-7.077 1.669-7.077-1.611 3.503-3.080 4.467-3.080 4.467 3.962-6.031 0.023-9.675 0.023-9.675 1.611 3.433-0.529 7.618-0.529 7.618-1.799 3.785-4.35 5.137-4.35 5.137 2.845 0.529 4.938-1.387 4.938-1.387-4.079 4.409-8.5 4.197-8.5 4.197 1.857 2.081 4.644 1.904 4.644 1.904-3.644 0.858-7.065-0.353-9.875-2.692-0.529-0.435-1.035-0.905-1.505-1.411 0 0-0.423-0.447-0.505-0.564l-0.012-0.012c-0.059 2.175 2.21 4.197 2.21 4.197-2.845-1.176-4.15-3.727-4.15-3.727s-1.916-3.268-0.529-6.995 5.584-4.526 5.584-4.526c3.468 1.681 6.407 2.21 6.407 2.21 6.195 1.035 5.843-1.999 5.843-1.999 0.059-2.61-3.88-5.384-3.88-5.384-7.018-5.208-13.367-1.846-13.367-1.846-5.49 2.433-7.112 7.759-7.112 7.759-0.259 0.835-0.494 1.658-0.647 2.516-0.6 3.492 0.306 6.795 2.269 9.734 3.057 4.561 8.018 6.137 8.018 6.137 7.348 2.492 12.367-1.176 12.367-1.176 4.62-3.174 5.549-6.842 5.549-6.842-3.727 2.916-5.337 2.645-5.337 2.645zM18.51 6.983c0.353 0 0.635 0.282 0.635 0.635s-0.282 0.635-0.635 0.635-0.635-0.282-0.635-0.635 0.282-0.635 0.635-0.635z"></path>
      <path  d="M26.375 10.58c0.059-2.61-3.88-5.384-3.88-5.384-7.018-5.196-13.367-1.834-13.367-1.834-5.49 2.434-7.112 7.759-7.112 7.759-0.317 0.905-0.6 2.292-0.6 2.292-0.341 1.74-0.188 3.35-0.188 3.35 0.141 1.54 0.482 2.575 0.482 2.575 0.353 1.105 0.517 1.446 0.517 1.446-0.012-0.035-0.071-0.294-0.071-0.294s-0.494-2.375-0.035-4.655c0 0 0.4-2.375 2.022-4.209 0 0 2.633-3.75 7.536-2.281 0 0 1.058 0.376 1.422 0.564 0.364 0.176 0.999 0.447 0.999 0.447 3.468 1.681 6.407 2.21 6.407 2.21 6.219 1.046 5.866-1.987 5.866-1.987zM18.51 8.264c-0.353 0-0.635-0.282-0.635-0.635s0.282-0.635 0.635-0.635 0.635 0.282 0.635 0.635-0.282 0.635-0.635 0.635z"></path>
      <path  d="M14.489 5.855l-4.009-1.246c-0.024 0-0.141-0.059-0.353 0 0 0-2.363 0.6-1.951 1.893 0 0 0.247 0.811 0.917 1.599l4.409-0.212z"></path>
    </symbol>

    <symbol id="webpack" viewBox="0 0 32 32">
      <title>webpack</title>
      <path d="M28.021 24.16l-11.553 6.506v-5.068l7.198-3.942zM28.811 23.448v-13.607l-4.228 2.429v8.746zM3.901 24.16l11.553 6.506v-5.068l-7.198-3.942zM3.111 23.448v-13.607l4.228 2.429v8.746zM3.605 8.96l11.849-6.674v4.9l-7.649 4.19zM28.317 8.96l-11.849-6.674v4.9l7.649 4.19zM15.454 24.446l-7.102-3.887v-7.703l7.101 4.083zM16.468 24.446l7.101-3.887v-7.703l-7.101 4.083zM8.833 11.965l7.129-3.904 7.129 3.904-7.129 4.099z"></path>
    </symbol>

    <symbol id="akita" viewBox="0 0 36 32">
      <title>akita</title>
      <path fill="#fefefe" d="M5.768 5.436h23.51v20.197h-23.51z"></path>
      <path fill="#c7764e" d="M26.050 2.661l0.912 3.964 0.932 1.521-9.575 6.656-10.231-6.688 2.231-2.275 0.191-2.574-0.216-0.604z"></path>
      <path fill="#aa6b44" d="M1.697 13.213l3.65-3.256 1.147-0.312 3.927 7.018-10.414 5.094z"></path>
      <path fill="#aa6b44" d="M36.308 21.739l-11.053-4.263 4.207-8.59 5.152 4.355z"></path>
      <path fill="#bcac9c" d="M30.839 10.125l0.335-2.42 0.704-2.782 0.362-3.216 0.237-0.448 0.716 0.413 2.454 1.985-1.031 9.584z"></path>
      <path fill="#bcac9c" d="M5.494 10.122c-1.126 1.2-2.508 2.089-3.796 3.091-0.478-3.175-0.876-6.359-1.013-9.571 0.998-0.297 1.904-0.040 2.774 0.453 0.222 0.153 0.411 0.34 0.565 0.561 0.648 1.779 1.75 3.438 1.47 5.466z"></path>
      <path fill="#d1d2c3" d="M28.006 28.75l6.512-4.155c-2.179 3.907-4.178 6.184-5.996 6.83s-4.765 0.127-8.842-1.558l3.386-0.877 0.282-0.037 4.659-0.203z"></path>
      <path fill="#d1d2c3" d="M8.175 31.425c-2.469-0.752-4.683-3.129-6.644-7.13l6.983 4.6 4.714 0.101 1.286 1.060c-1.758 1.665-3.871 2.122-6.339 1.369z"></path>
      <path fill="#9c5d3e" d="M33.237 1.517l-5.823 3.281 2.313 2.001-1.956 1.284-3.437-3.95 1.715-1.473 6.905-2.465z"></path>
      <path fill="#9c5d3d" d="M12.037 4.67l-3.773 3.425-1.466-1.437 0.8-0.609 1.303-1.171-1.421-1.506-4.315-1.522 0.211-1.837 6.918 2.649z"></path>
      <path fill="#fefefe" d="M23.345 29.098l-1.843-2.882-1.453-1.5-0.38-3.271-2.905-0.076-1.027 0.909c0.597 1.094 0.822 1.907 0.674 2.437s-0.829 1.356-2.043 2.477l-1.459 1.905-3.32-6.289 0.606-2.042 2.115-1.895 0.949-1.010 0.953-0.636 3.966-2.195 3.938 2.186 0.654 0.599 0.901 0.904 0.412 0.196 2.683 3.891-3.418 6.291z"></path>
      <path fill="#c37d55" d="M28.196 8.366l2.166 1.244-6.77 6.455v-2.892h-3.626l7.805-5.089z"></path>
      <path fill="#c37d55" d="M4.961 8.752l2.73-1.588 7.882 5.721c-2.197 0.164-3.296 0.26-3.296 0.288s0.092 0.936 0.275 2.725l-7.59-7.145z"></path>
      <path fill="#c8764a" d="M22.186 3.19h-8.778c0.001-0.057 0.001-0.114 0.002-0.17h8.836l-0.060 0.17z"></path>
      <path fill="#fbfbfd" d="M9.588 22.809l-1.623 1.633-3.996 0.548-2.376-0.548 1.703-4.382 5.612-2.741 2.008 0.99 1.768 0.728z"></path>
      <path fill="#9c5c3c" d="M13 16.285l-2.794 0.948-3.208-6.603z"></path>
      <path fill="#c39379" d="M10.614 16.643l3.942 0.676-1.588 1.901c-0.799 0.044-1.588-0.116-2.368-0.481s-1.345-0.838-1.693-1.42l1.374-0.692 0.333 0.016z"></path>
      <path fill="#fbfbfd" d="M23.668 19.039l1.78-0.732 1.995-0.975 5.796 3.121 1.367 3.99-6.317-0.548-1.525-1.087z"></path>
      <path fill="#9c5c3c" d="M29.255 10.661l-3.481 6.575-2.112-1.305z"></path>
      <path fill="#b2b6bf" d="M15.508 24.502l1.078 3.438-3.629 1.183z"></path>
      <path fill="#b2b5bf" d="M23.272 29.054l-3.555-1.337 1.064-3.528z"></path>
      <path fill="#ac937c" d="M29.489 6.727c-1.209-0.435-1.975-0.899-2.298-1.391s-0.294-1.148 0.089-1.969l5.614-1.85-0.739 3.275-2.666 1.935z"></path>
      <path fill="#ac937c" d="M3.425 4.322v-2.987l5.899 2.358c0.344 0.507 0.27 1.063-0.22 1.668s-1.24 1.063-2.249 1.375l-3.43-2.414z"></path>
      <path fill="#a99d8b" d="M23.235 28.989l-1.443 1.491h-7.807l-0.885-1.498 3.724-1.379h3.062z"></path>
      <path fill="#212022" d="M10.271 16.643l2.386-0.701 1.899 1.379-2.225 0.704z"></path>
      <path fill="#7e828b" d="M20.867 24.456l-0.982 3.148-3.423 0.323-1-3.451z"></path>
      <path fill="#dfebed" d="M1.722 24.464c3.21-2.101 5.896-2.715 8.059-1.84s3.297 3.032 3.401 6.474l-4.329 0.447-7.131-5.080z"></path>
      <path fill="#dfebed" d="M27.427 29.554l-4.357-0.456c0.686-3.674 1.853-5.837 3.501-6.488s4.293 0.005 7.933 1.97l-7.078 4.974z"></path>
      <path fill="#212022" d="M20.867 24.456l-2.585 1.598-2.82-1.578c-0.103-1.443-0.106-2.339-0.008-2.685s0.426-0.596 0.983-0.748c1.881-0.066 3.038-0.064 3.472 0.007 0.65 0.106 0.958-0.106 1.1 0.741 0.095 0.565 0.047 1.454-0.142 2.666z"></path>
      <path fill="#d0c2b1" d="M32.955 0.195c0.895-0.281 2.885 2.351 2.692 3.461-0.129 0.739-1.29 1.104-3.484 1.094-0.068-2.849 0.196-4.367 0.793-4.554z"></path>
      <path fill="#c29278" d="M26.068 16.623l1.374 0.709c-0.581 0.723-1.144 1.189-1.692 1.397s-1.351 0.264-2.411 0.166l-1.172-1.563 1.709-0.709h2.192z"></path>
      <path fill="#452922" d="M27.683 8.069l4.46-3.306-1.005 5.609z"></path>
      <path fill="#e2b48f" d="M33.239 20.453l3.069 1.286-1.817 2.906z"></path>
      <path fill="#212022" d="M22.186 17.341l1.477-1.41 2.47 0.688-2.051 1.4z"></path>
      <path fill="#d0c2b1" d="M3.655 4.504c-1.929 0.239-2.919-0.048-2.97-0.862-0.077-1.221 2.017-3.825 2.687-3.631 0.446 0.129 0.541 1.627 0.284 4.493z"></path>
      <path fill="#442822" d="M8.689 7.732l-3.184 2.465-1.836-5.744z"></path>
      <path fill="#e1b28e" d="M1.722 24.464l-1.713-2.707 3.358-1.68z"></path>
    </symbol>

    <symbol id="storybook" viewBox="0 0 26 32">
      <title>storybook</title>
      <path d="M0.99 29.424l-0.989-26.357c-0.033-0.87 0.635-1.608 1.504-1.663l22.419-1.401c0.885-0.055 1.647 0.617 1.702 1.502 0.002 0.033 0.003 0.067 0.003 0.1v28.721c0 0.887-0.719 1.605-1.605 1.605-0.024 0-0.048-0.001-0.072-0.002l-21.43-0.962c-0.835-0.038-1.501-0.709-1.532-1.544v0z"></path>
      <path fill="#fff" d="M18.926 3.925l0.153-3.683 3.079-0.242 0.133 3.798c0.005 0.132-0.099 0.243-0.231 0.248-0.057 0.002-0.112-0.016-0.157-0.051l-1.187-0.935-1.406 1.066c-0.105 0.080-0.256 0.059-0.336-0.046-0.034-0.044-0.051-0.099-0.048-0.155zM14.988 12.036c0 0.625 4.207 0.325 4.772-0.114 0-4.253-2.282-6.489-6.462-6.489s-6.521 2.27-6.521 5.675c0 5.93 8.003 6.044 8.003 9.278 0 0.908-0.445 1.447-1.423 1.447-1.275 0-1.778-0.651-1.719-2.864 0-0.48-4.861-0.63-5.009 0-0.377 5.363 2.964 6.91 6.788 6.91 3.705 0 6.61-1.975 6.61-5.55 0-6.356-8.122-6.186-8.122-9.335 0-1.277 0.948-1.447 1.512-1.447 0.593 0 1.66 0.104 1.571 2.488z"></path>
    </symbol>

    <symbol id="figma" viewBox="0 0 65 32">
      <title>figma</title>
      <path d="M8.074 0.111c0 0.065-0.115 0.123-0.303 0.151-0.173 0.022-0.505 0.108-0.743 0.195-1.874 0.62-3.352 2.112-3.922 3.951-0.353 1.146-0.368 1.384-0.368 5.969 0 3.259-0.022 4.333-0.087 4.398-0.058 0.058-0.469 0.086-1.37 0.086h-1.283v2.019h1.29c0.988 0 1.305 0.022 1.37 0.094 0.050 0.072 0.087 1.197 0.094 3.734l0.022 3.633 1.089 0.022c0.851 0.014 1.11 0 1.168-0.079 0.065-0.072 0.094-1.153 0.101-3.734l0.022-3.633 7.065-0.072v-1.946l-3.496-0.022c-1.918-0.007-3.518-0.043-3.547-0.072-0.036-0.036-0.058-1.954-0.058-4.268 0-4.419 0.014-4.592 0.346-5.587 0.332-0.988 1.038-1.86 1.795-2.235 1.175-0.57 2.783-0.606 4.131-0.094 0.793 0.31 1.572 1.024 1.975 1.817l0.281 0.548 0.548 0.014c0.303 0.007 0.786 0.014 1.074 0.022 0.642 0.014 0.743-0.050 0.663-0.447-0.231-1.168-1.175-2.538-2.242-3.266-0.764-0.526-1.709-0.923-2.466-1.045-0.151-0.022-0.296-0.094-0.317-0.151-0.058-0.151-2.833-0.151-2.833 0z"></path>
      <path d="M14.418 5.878c-0.411 0.115-0.707 0.274-0.959 0.512-0.901 0.858-0.901 2.329-0.007 3.143 0.497 0.447 0.735 0.533 1.471 0.533 0.771-0.007 1.089-0.123 1.55-0.577 0.447-0.454 0.57-0.779 0.57-1.514 0-0.67-0.058-0.872-0.418-1.355-0.317-0.425-1.197-0.858-1.716-0.836-0.094 0-0.31 0.043-0.49 0.094zM22.817 10.463c-0.533 0.072-0.944 0.209-1.593 0.505-2.285 1.067-3.778 3.713-3.778 6.704 0 1.42 0.223 2.365 0.88 3.727 0.368 0.757 0.512 0.973 1.002 1.5 1.146 1.204 2.156 1.73 3.691 1.918 1.766 0.216 3.511-0.382 4.772-1.636 0.231-0.231 0.433-0.375 0.483-0.346 0.137 0.087 0.022 3.114-0.144 3.778-0.166 0.634-0.324 1.117-0.461 1.37-0.735 1.348-1.802 1.939-3.518 1.946-1.456 0-2.595-0.512-3.338-1.507-0.533-0.714-0.743-1.211-0.815-1.961-0.029-0.274-0.087-0.526-0.137-0.57-0.058-0.050-0.483-0.072-1.125-0.058l-1.038 0.022-0.022 0.252c-0.014 0.137 0.029 0.526 0.094 0.865 0.303 1.5 0.743 2.365 1.658 3.287 0.36 0.353 0.851 0.764 1.089 0.908 0.483 0.281 1.384 0.642 1.925 0.771 0.44 0.101 2.898 0.101 3.345 0 2.235-0.526 3.951-2.213 4.513-4.426 0.296-1.146 0.296-1.139 0.317-8.918 0.022-5.328 0.007-7.598-0.050-7.699-0.072-0.137-0.144-0.144-1.067-0.144-0.678 0-1.024 0.029-1.081 0.086s-0.087 0.346-0.087 0.822c0 0.469-0.029 0.757-0.079 0.793-0.043 0.029-0.238-0.123-0.454-0.346-0.67-0.707-1.442-1.182-2.444-1.507-0.512-0.166-1.838-0.238-2.538-0.137zM25.124 12.749c2.574 0.779 3.806 3.814 2.797 6.906-0.353 1.089-1.139 2.069-2.040 2.545-0.649 0.346-0.952 0.411-1.983 0.411-1.038 0-1.197-0.029-1.874-0.382-0.706-0.36-1.456-1.168-1.824-1.961-0.094-0.216-0.202-0.447-0.238-0.512-0.029-0.065-0.123-0.404-0.202-0.75-0.281-1.153-0.195-2.509 0.223-3.641 0.346-0.937 1.182-1.889 2.076-2.365 0.779-0.418 2.156-0.526 3.064-0.252zM37.163 10.456c-0.786 0.144-1.629 0.642-2.156 1.262-0.195 0.223-0.382 0.382-0.411 0.353-0.036-0.036-0.065-0.332-0.079-0.67l-0.022-0.613-1.074-0.022c-0.728-0.014-1.103 0.007-1.168 0.065-0.151 0.123-0.151 13.488 0 13.611 0.065 0.058 0.44 0.079 1.168 0.065l1.074-0.022 0.043-4.253c0.043-4.441 0.065-4.816 0.389-5.717 0.303-0.843 0.786-1.406 1.478-1.723 0.332-0.144 0.512-0.173 1.081-0.173 0.843-0.007 1.226 0.144 1.658 0.642 0.332 0.375 0.447 0.606 0.663 1.348 0.137 0.476 0.151 0.757 0.195 5.191l0.043 4.686h2.235l0.043-4.253c0.043-4.513 0.072-4.945 0.418-5.868 0.281-0.75 0.843-1.355 1.507-1.615 0.476-0.187 1.658-0.187 2.069 0 0.476 0.216 0.67 0.375 0.923 0.764 0.512 0.793 0.505 0.692 0.541 6.034 0.014 3.208 0.050 4.823 0.101 4.881 0.115 0.144 2.098 0.13 2.22-0.014 0.065-0.079 0.079-1.197 0.058-4.953-0.029-4.275-0.050-4.909-0.159-5.356-0.36-1.485-0.887-2.43-1.629-2.949-0.872-0.606-1.298-0.728-2.559-0.721-0.836 0-1.096 0.029-1.507 0.159-0.93 0.303-1.687 0.779-2.141 1.363-0.404 0.512-0.425 0.533-0.533 0.476-0.058-0.036-0.231-0.238-0.389-0.447-0.461-0.62-1.096-1.060-1.99-1.384-0.404-0.151-1.629-0.231-2.091-0.144zM56.52 10.456c-2.357 0.332-4.311 2.033-5.104 4.441-0.714 2.177-0.57 4.462 0.389 6.344 0.75 1.463 1.716 2.43 3.057 3.042 0.678 0.31 0.894 0.375 1.651 0.49 0.851 0.137 1.182 0.137 2.033 0 1.319-0.202 2.235-0.663 3.179-1.593 0.223-0.223 0.44-0.382 0.483-0.353 0.050 0.029 0.079 0.346 0.079 0.829 0 0.642 0.022 0.786 0.115 0.822 0.065 0.022 0.562 0.043 1.117 0.043h1.002l0.072-0.18c0.101-0.26 0.094-13.265 0-13.445-0.072-0.13-0.159-0.144-1.103-0.144-0.706 0-1.060 0.029-1.117 0.086s-0.087 0.353-0.087 0.865c0 0.67-0.014 0.779-0.115 0.779-0.065 0-0.18-0.086-0.267-0.187-0.461-0.584-1.723-1.37-2.725-1.687-0.519-0.166-1.968-0.245-2.66-0.151zM58.791 12.749c1.031 0.324 1.809 0.894 2.365 1.737 0.642 0.959 0.836 1.687 0.843 3.042 0 1.168-0.137 1.802-0.57 2.703-0.49 1.009-1.276 1.745-2.321 2.177-0.425 0.173-0.548 0.187-1.543 0.195-1.182 0.007-1.492-0.058-2.235-0.483-0.908-0.519-1.68-1.579-2.055-2.812-0.836-2.783 0.368-5.616 2.768-6.51 0.613-0.231 2.083-0.26 2.747-0.050zM13.806 10.766c-0.022 0.050-0.029 3.143-0.022 6.87l0.022 6.777 1.081 0.022c0.952 0.014 1.089 0.007 1.168-0.108 0.072-0.094 0.094-1.543 0.094-6.769 0-5.948-0.014-6.661-0.115-6.762-0.094-0.094-0.303-0.115-1.153-0.115-0.764 0-1.053 0.022-1.074 0.086zM38.259 25.725c-0.079 0.079-0.058 1.391 0.022 1.391 0.043 0 0.072-0.101 0.072-0.216 0-0.151 0.065-0.281 0.187-0.396 0.137-0.13 0.159-0.18 0.087-0.18-0.065 0-0.151-0.050-0.202-0.108-0.072-0.087-0.065-0.144 0.029-0.288 0.065-0.101 0.151-0.166 0.187-0.144 0.043 0.029 0.072 0.007 0.072-0.029 0-0.087-0.375-0.108-0.454-0.029zM41.258 25.776c-0.368 0.202-0.454 0.339-0.454 0.714 0 0.317 0.029 0.382 0.267 0.598 0.317 0.288 0.757 0.346 0.88 0.108 0.072-0.123 0.050-0.13-0.245-0.094-0.267 0.029-0.353 0.007-0.505-0.137-0.26-0.252-0.252-0.728 0.022-0.966 0.209-0.187 0.512-0.231 0.649-0.094 0.043 0.043 0.108 0.065 0.137 0.036 0.079-0.079-0.216-0.26-0.411-0.26-0.101 0.007-0.252 0.050-0.339 0.094zM42.534 25.725c0 0.036 0.050 0.123 0.108 0.195 0.072 0.101 0.108 0.324 0.108 0.706 0 0.317 0.029 0.562 0.072 0.562 0.087 0 0.137-0.216 0.166-0.793 0.014-0.26 0.050-0.526 0.079-0.598 0.050-0.108 0.022-0.123-0.238-0.123-0.166 0-0.296 0.022-0.296 0.050zM44.005 25.776c-0.353 0.195-0.389 0.267-0.389 0.728 0 0.433 0.014 0.461 0.245 0.642 0.353 0.267 0.663 0.252 1.002-0.058 0.238-0.216 0.267-0.281 0.267-0.598 0-0.281-0.036-0.389-0.159-0.497-0.382-0.324-0.663-0.389-0.966-0.216zM44.697 25.977c0.187 0.13 0.216 0.202 0.216 0.483 0 0.425-0.202 0.656-0.577 0.656-0.36 0-0.541-0.209-0.541-0.613 0-0.238 0.043-0.353 0.18-0.49 0.231-0.223 0.454-0.238 0.721-0.036zM45.648 25.761c-0.101 0.101-0.123 1.399-0.022 1.456 0.036 0.022 0.101-0.058 0.144-0.173 0.072-0.216 0.223-0.296 0.223-0.123 0 0.094 0.281 0.368 0.332 0.317 0.014-0.014-0.036-0.159-0.115-0.332l-0.151-0.303 0.151-0.209c0.187-0.267 0.137-0.469-0.144-0.613-0.252-0.13-0.31-0.13-0.418-0.022zM46.088 26.266c-0.065 0.072-0.159 0.13-0.216 0.13-0.094 0-0.13-0.26-0.050-0.461 0.036-0.101 0.065-0.094 0.209 0.043 0.159 0.151 0.159 0.173 0.058 0.288zM54.162 25.797c-0.166 0.108-0.216 0.346-0.108 0.497 0.029 0.036 0.173 0.144 0.324 0.238 0.223 0.137 0.274 0.202 0.252 0.36-0.029 0.223-0.332 0.31-0.433 0.123-0.065-0.115-0.202-0.094-0.202 0.029s0.231 0.288 0.389 0.288c0.216 0 0.476-0.288 0.476-0.526 0-0.144-0.072-0.238-0.303-0.389-0.173-0.108-0.324-0.202-0.339-0.216-0.014-0.007 0-0.101 0.022-0.209 0.050-0.187 0.087-0.195 0.44-0.065 0.137 0.050 0.13 0.043-0.014-0.101-0.187-0.18-0.288-0.187-0.505-0.029zM61.372 25.797c-0.058 0.115-0.065 0.461-0.036 1.081 0.014 0.274 0.159 0.324 0.159 0.058 0-0.13 0.072-0.223 0.231-0.324 0.44-0.267 0.483-0.678 0.079-0.858-0.245-0.115-0.368-0.101-0.433 0.043zM61.963 26.143s-0.072 0.079-0.159 0.173l-0.159 0.173-0.087-0.18c-0.058-0.137-0.058-0.223 0.007-0.346l0.087-0.159 0.151 0.166c0.087 0.094 0.159 0.173 0.159 0.173zM62.619 25.855c-0.238 0.223-0.18 0.382 0.245 0.649 0.281 0.18 0.332 0.274 0.245 0.497-0.058 0.151-0.368 0.144-0.454-0.014-0.058-0.094-0.087-0.101-0.159-0.036-0.072 0.072-0.050 0.123 0.087 0.238 0.223 0.187 0.483 0.159 0.649-0.072 0.195-0.274 0.108-0.548-0.231-0.743-0.31-0.173-0.353-0.368-0.115-0.512 0.094-0.058 0.144-0.058 0.195 0.029 0.036 0.058 0.087 0.079 0.115 0.050 0.072-0.072-0.115-0.267-0.26-0.267-0.065 0-0.209 0.079-0.317 0.18zM34.9 25.934c-0.087 0.108-0.151 0.267-0.151 0.36s-0.029 0.173-0.065 0.173c-0.058 0-0.296 0.62-0.296 0.764 0 0.029 0.079-0.036 0.18-0.144 0.137-0.144 0.238-0.187 0.49-0.187 0.26 0 0.332 0.029 0.36 0.144 0.043 0.166 0.195 0.195 0.195 0.036 0-0.108-0.151-0.49-0.332-0.843-0.058-0.101-0.101-0.238-0.101-0.296 0-0.202-0.13-0.202-0.281-0.007zM35.181 26.424c0 0.202-0.123 0.31-0.231 0.202-0.050-0.050-0.043-0.123 0.007-0.223 0.115-0.202 0.223-0.195 0.223 0.022zM36.075 25.855c-0.029 0.065 0.007 0.173 0.072 0.245 0.144 0.159 0.151 0.606 0.007 0.728-0.123 0.101-0.144 0.36-0.036 0.36 0.043 0 0.108-0.079 0.144-0.18 0.087-0.231 0.18-0.231 0.404 0.014 0.094 0.101 0.195 0.173 0.216 0.144 0.058-0.058-0.036-0.339-0.123-0.339-0.115 0-0.072-0.663 0.058-0.807 0.087-0.094 0.094-0.159 0.043-0.209-0.058-0.058-0.101-0.036-0.159 0.072-0.094 0.173-0.44 0.209-0.44 0.050s-0.137-0.216-0.187-0.079zM39.658 26.086c-0.087 0.187-0.209 0.44-0.26 0.548-0.123 0.238-0.144 0.483-0.036 0.483 0.043 0 0.094-0.050 0.115-0.108 0.065-0.166 0.613-0.144 0.771 0.036 0.065 0.079 0.151 0.144 0.187 0.144 0.058 0-0.065-0.447-0.202-0.706-0.036-0.065-0.108-0.223-0.151-0.353-0.159-0.418-0.252-0.425-0.425-0.043zM39.96 26.41c0.050 0.187 0.007 0.274-0.137 0.274-0.065 0-0.101-0.079-0.101-0.216 0-0.252 0.18-0.296 0.238-0.058zM55.655 26.071c-0.094 0.202-0.195 0.425-0.238 0.505s-0.094 0.245-0.123 0.375c-0.050 0.216-0.043 0.231 0.079 0.159 0.072-0.036 0.137-0.101 0.137-0.137 0-0.123 0.627-0.087 0.678 0.036 0.022 0.058 0.087 0.108 0.137 0.108 0.115 0 0.087-0.31-0.058-0.541-0.050-0.079-0.108-0.223-0.137-0.324-0.022-0.101-0.108-0.26-0.18-0.36l-0.137-0.173zM55.943 26.468c0 0.144-0.036 0.216-0.108 0.216s-0.108-0.072-0.108-0.216 0.036-0.216 0.108-0.216 0.108 0.072 0.108 0.216zM63.758 25.848c-0.036 0.087-0.014 0.166 0.050 0.216 0.173 0.137 0.353 0.548 0.353 0.8 0 0.137 0.029 0.26 0.065 0.281 0.079 0.050 0.151-0.13 0.151-0.389 0-0.288 0.223-0.714 0.382-0.721 0.072 0 0.123-0.058 0.123-0.144 0-0.223-0.187-0.173-0.425 0.123-0.216 0.26-0.223 0.267-0.324 0.13-0.324-0.454-0.317-0.447-0.375-0.296zM32.52 26.266c-0.123 0.57-0.137 0.88-0.043 0.923 0.043 0.022 0.079-0.108 0.094-0.31s0.058-0.339 0.108-0.339c0.151 0.007 0.339 0.195 0.339 0.339 0 0.079 0.050 0.187 0.108 0.238 0.144 0.123 0.324-0.022 0.324-0.26 0-0.123 0.058-0.202 0.187-0.245 0.101-0.043 0.195-0.072 0.209-0.072s0.036 0.151 0.050 0.339c0.014 0.195 0.058 0.339 0.094 0.324 0.094-0.029 0.065-0.519-0.036-0.62-0.036-0.036-0.072-0.231-0.072-0.418 0-0.238-0.029-0.346-0.094-0.346-0.108 0-0.339 0.44-0.339 0.649 0 0.115-0.050 0.144-0.216 0.144-0.123 0-0.216-0.036-0.216-0.087 0-0.166-0.252-0.706-0.324-0.706-0.043 0-0.115 0.202-0.173 0.447zM46.831 25.977c0.022 0.094 0.094 0.216 0.151 0.281 0.058 0.072 0.123 0.303 0.144 0.526 0.036 0.368 0.166 0.512 0.166 0.18 0-0.173 0.26-0.757 0.36-0.822 0.115-0.072 0.087-0.324-0.036-0.324-0.058 0-0.108 0.058-0.108 0.13 0 0.079-0.079 0.173-0.187 0.216-0.166 0.079-0.187 0.072-0.252-0.13-0.094-0.26-0.317-0.31-0.238-0.058zM50.442 26.338c-0.151 0.627-0.159 0.872-0.029 0.836 0.043-0.022 0.094-0.166 0.108-0.332s0.058-0.303 0.094-0.303c0.13 0 0.339 0.252 0.368 0.433 0.043 0.346 0.31 0.166 0.447-0.303 0.036-0.108 0.065-0.115 0.223-0.043 0.137 0.065 0.18 0.137 0.18 0.317 0 0.13 0.036 0.26 0.072 0.281 0.094 0.058 0.094-0.49 0.007-0.584-0.043-0.036-0.079-0.223-0.094-0.418s-0.058-0.368-0.094-0.382c-0.094-0.029-0.324 0.346-0.324 0.519 0 0.137-0.195 0.317-0.339 0.324-0.050 0-0.094-0.065-0.094-0.144 0-0.173-0.267-0.721-0.346-0.721-0.036 0-0.115 0.238-0.18 0.519zM52.814 25.977c-0.065 0.087-0.115 0.216-0.115 0.288s-0.029 0.13-0.072 0.13c-0.036 0-0.094 0.087-0.115 0.195-0.029 0.115-0.101 0.274-0.159 0.368-0.072 0.108-0.087 0.187-0.036 0.238s0.115 0.014 0.195-0.108c0.101-0.159 0.173-0.187 0.44-0.187 0.274 0 0.332 0.029 0.425 0.195 0.094 0.18 0.108 0.187 0.159 0.065 0.029-0.079 0.007-0.231-0.065-0.375-0.173-0.36-0.317-0.692-0.368-0.843-0.050-0.166-0.159-0.159-0.288 0.036zM53.131 26.432c0 0.202-0.18 0.317-0.303 0.195-0.065-0.065-0.050-0.123 0.050-0.231 0.173-0.195 0.252-0.18 0.252 0.036zM56.866 25.913c-0.050 0.18 0.029 1.276 0.094 1.24 0.036-0.029 0.065-0.123 0.065-0.216s0.022-0.187 0.058-0.202c0.058-0.043 0.375 0.195 0.375 0.281 0 0.058 0.223 0.238 0.31 0.245 0.115 0 0.036-0.159-0.202-0.425-0.137-0.151-0.252-0.324-0.252-0.389 0-0.058 0.101-0.209 0.216-0.324 0.123-0.123 0.216-0.238 0.216-0.26 0-0.094-0.223-0.036-0.26 0.065-0.029 0.058-0.087 0.108-0.137 0.108s-0.115 0.050-0.137 0.115c-0.058 0.144-0.187 0.065-0.187-0.115 0-0.159-0.115-0.252-0.159-0.123zM58.322 26.497c0 0.656 0.087 0.908 0.18 0.526 0.072-0.288 0.007-1.153-0.087-1.189-0.072-0.022-0.094 0.144-0.094 0.663zM60.139 25.905c-0.050 0.050-0.087 0.159-0.087 0.252s-0.029 0.166-0.072 0.166c-0.036 0-0.101 0.13-0.144 0.288-0.043 0.151-0.108 0.303-0.144 0.324-0.094 0.058-0.094 0.324 0 0.324 0.043 0 0.108-0.079 0.144-0.18 0.058-0.159 0.108-0.18 0.433-0.18s0.375 0.022 0.433 0.187c0.043 0.101 0.101 0.159 0.144 0.137 0.108-0.065 0.094-0.137-0.137-0.627-0.115-0.252-0.231-0.526-0.26-0.62-0.050-0.173-0.173-0.209-0.31-0.072zM60.442 26.388c0.072 0.115-0.036 0.296-0.173 0.296-0.115 0-0.216-0.13-0.216-0.296 0-0.087 0.339-0.087 0.389 0zM49.152 26.201c-0.187 0.137-0.209 0.144-0.332 0.029-0.072-0.065-0.187-0.123-0.26-0.123-0.115 0-0.108 0.022 0.022 0.209 0.151 0.216 0.195 0.368 0.101 0.368-0.036 0-0.094 0.079-0.144 0.18-0.101 0.216-0.029 0.231 0.216 0.036 0.159-0.13 0.209-0.137 0.339-0.058 0.079 0.050 0.144 0.115 0.144 0.144 0 0.036 0.050 0.058 0.108 0.058 0.144 0 0.137-0.087-0.029-0.296-0.137-0.187-0.123-0.339 0.058-0.476 0.079-0.058 0.094-0.108 0.043-0.151-0.043-0.050-0.144-0.022-0.267 0.079zM34.784 28.155c-0.512 0.223-0.815 0.793-0.728 1.363 0.137 0.843 1.19 1.377 1.752 0.887 0.18-0.159 0.187-0.18 0.072-0.231-0.072-0.022-0.209-0.014-0.31 0.036-0.353 0.159-0.591 0.101-0.93-0.245-0.281-0.281-0.324-0.36-0.324-0.627 0-0.67 0.548-1.089 1.204-0.93 0.353 0.094 0.425 0.072 0.353-0.101-0.087-0.245-0.692-0.324-1.089-0.151zM36.291 28.162c-0.058 0.151 0.029 0.252 0.223 0.252h0.173l0.022 1.024c0.022 0.858 0.036 1.031 0.13 1.031 0.087 0 0.115-0.173 0.144-1.009l0.036-1.009 0.216-0.022c0.281-0.036 0.375-0.123 0.252-0.267-0.123-0.151-1.139-0.159-1.197 0zM39.182 28.155c-0.324 0.159-0.433 0.267-0.606 0.598-0.288 0.577-0.123 1.204 0.44 1.608 0.519 0.382 1.211 0.245 1.651-0.317 0.231-0.296 0.245-1.139 0.029-1.427-0.36-0.476-1.053-0.685-1.514-0.461zM40.040 28.443c0.483 0.202 0.699 0.923 0.411 1.363-0.18 0.274-0.533 0.483-0.815 0.483-0.418 0-0.923-0.533-0.923-0.973 0-0.202 0.173-0.577 0.339-0.743 0.216-0.216 0.642-0.274 0.988-0.13zM44.805 28.169c-0.159 0.166-0.13 2.3 0.036 2.3 0.079 0 0.115-0.123 0.144-0.519 0.022-0.281 0.058-0.541 0.094-0.57 0.029-0.029 0.18-0.072 0.346-0.094 0.375-0.058 0.397-0.18 0.029-0.209s-0.483-0.13-0.454-0.404c0.022-0.209 0.043-0.223 0.346-0.245 0.382-0.029 0.49-0.108 0.36-0.267-0.123-0.151-0.743-0.144-0.901 0.007zM47.544 28.162c-0.505 0.238-0.699 0.562-0.699 1.153 0 0.519 0.115 0.743 0.548 1.053 0.584 0.425 1.435 0.159 1.636-0.519 0.13-0.425 0.043-0.533-0.447-0.533-0.296 0-0.389 0.029-0.389 0.108 0 0.072 0.087 0.115 0.274 0.13 0.252 0.022 0.274 0.043 0.252 0.216-0.029 0.223-0.418 0.519-0.685 0.519-0.433 0-0.959-0.541-0.959-0.988 0-0.296 0.397-0.822 0.685-0.901 0.281-0.079 0.757 0 0.807 0.13 0.043 0.115 0.382 0.137 0.382 0.022 0-0.209-0.555-0.497-0.952-0.497-0.13 0.007-0.332 0.050-0.454 0.108zM51.668 28.104c-0.029 0.022-0.050 0.577-0.050 1.226 0 0.995 0.014 1.175 0.108 1.175 0.079 0 0.108-0.094 0.108-0.382 0-0.216 0.022-0.411 0.050-0.433 0.050-0.058 0.382 0.223 0.382 0.324 0 0.137 0.324 0.49 0.447 0.49 0.18 0 0.166-0.079-0.123-0.497-0.303-0.433-0.31-0.526-0.065-0.706 0.238-0.173 0.317-0.656 0.151-0.916-0.137-0.202-0.88-0.411-1.009-0.281zM52.396 28.501c0.151 0.151 0.101 0.461-0.094 0.591-0.332 0.216-0.469 0.123-0.469-0.346 0-0.13 0.022-0.26 0.050-0.281 0.079-0.079 0.418-0.058 0.512 0.036zM53.319 28.162c-0.094 0.101-0.115 0.296-0.115 1.153 0 1.262 0.007 1.276 0.714 1.247 0.368-0.014 0.476-0.043 0.476-0.13 0-0.079-0.094-0.115-0.339-0.13-0.18-0.014-0.375-0.065-0.418-0.123-0.043-0.050-0.072-0.267-0.058-0.483l0.022-0.382 0.397-0.036c0.216-0.022 0.397-0.072 0.397-0.108 0-0.043-0.18-0.087-0.397-0.108l-0.397-0.036-0.043-0.606 0.418-0.022c0.36-0.022 0.418-0.043 0.418-0.166 0-0.13-0.058-0.144-0.476-0.166-0.368-0.014-0.512 0.007-0.598 0.094zM56.145 28.162c-0.13 0.072-0.209 0.187-0.238 0.346-0.072 0.368 0.058 0.584 0.497 0.829 0.216 0.13 0.433 0.288 0.469 0.36 0.101 0.18-0.058 0.461-0.303 0.548-0.166 0.058-0.223 0.043-0.397-0.123-0.375-0.36-0.57-0.195-0.223 0.195 0.18 0.209 0.274 0.26 0.49 0.26 0.144 0 0.339-0.050 0.425-0.115 0.187-0.13 0.375-0.469 0.375-0.67 0-0.209-0.288-0.512-0.692-0.728-0.274-0.144-0.36-0.231-0.375-0.382-0.029-0.245 0.238-0.375 0.533-0.267 0.26 0.101 0.317 0.094 0.317-0.058 0-0.267-0.526-0.382-0.88-0.195zM57.644 28.169c-0.173 0.166-0.166 2.127 0 2.3 0.159 0.159 1.074 0.13 1.074-0.036 0-0.079-0.108-0.115-0.397-0.144l-0.397-0.036v-0.937l0.397-0.036c0.216-0.022 0.397-0.072 0.397-0.108 0-0.043-0.18-0.087-0.397-0.108l-0.397-0.036-0.022-0.31-0.022-0.303h0.397c0.418 0 0.548-0.079 0.404-0.252-0.13-0.151-0.887-0.144-1.038 0.007zM59.31 28.147c-0.115 0.079-0.123 0.216-0.108 1.204 0.022 0.937 0.036 1.117 0.13 1.117 0.079 0 0.115-0.101 0.13-0.418 0.022-0.375 0.036-0.404 0.151-0.339 0.079 0.036 0.223 0.216 0.324 0.396 0.209 0.346 0.433 0.519 0.512 0.389 0.029-0.036-0.065-0.252-0.209-0.461-0.296-0.447-0.317-0.562-0.13-0.699 0.303-0.216 0.389-0.649 0.187-0.959-0.072-0.115-0.223-0.195-0.469-0.245-0.433-0.094-0.375-0.094-0.519 0.014zM60.052 28.594c0.137 0.36-0.209 0.757-0.469 0.541-0.108-0.087-0.151-0.584-0.058-0.67 0.022-0.029 0.137-0.050 0.252-0.050 0.151 0 0.223 0.043 0.274 0.18zM61.674 28.169c-0.101 0.101-0.115 0.274-0.094 1.197 0.014 0.858 0.043 1.089 0.13 1.139 0.058 0.043 0.317 0.065 0.577 0.058 0.382-0.022 0.469-0.043 0.49-0.151 0.022-0.101-0.029-0.123-0.339-0.123-0.44 0-0.591-0.159-0.533-0.57 0.058-0.375 0.137-0.44 0.533-0.44 0.26 0 0.353-0.029 0.353-0.108 0-0.072-0.108-0.108-0.411-0.123-0.382-0.022-0.411-0.036-0.461-0.231-0.087-0.303 0.029-0.404 0.454-0.404 0.252 0 0.36-0.029 0.397-0.115 0.065-0.173-0.108-0.245-0.57-0.245-0.281 0-0.447 0.036-0.526 0.115zM63.534 28.198c-0.209 0.123-0.238 0.18-0.238 0.454 0 0.238 0.043 0.353 0.166 0.469 0.094 0.087 0.202 0.159 0.238 0.159s0.187 0.079 0.339 0.18c0.324 0.223 0.368 0.533 0.108 0.714-0.223 0.159-0.375 0.144-0.57-0.065-0.209-0.216-0.353-0.231-0.353-0.036 0 0.231 0.36 0.505 0.656 0.505 0.411 0 0.714-0.317 0.714-0.743 0-0.288-0.029-0.353-0.267-0.548-0.151-0.123-0.324-0.223-0.389-0.223s-0.166-0.058-0.231-0.13c-0.296-0.324-0.014-0.685 0.389-0.512 0.173 0.065 0.238 0.065 0.303 0 0.065-0.072 0.050-0.123-0.087-0.231-0.216-0.173-0.483-0.173-0.779 0.007zM32.737 28.313c-0.079 0.108-0.151 0.231-0.151 0.288 0 0.050-0.043 0.18-0.101 0.296-0.050 0.108-0.151 0.324-0.216 0.476-0.058 0.144-0.159 0.375-0.216 0.505-0.065 0.123-0.13 0.317-0.159 0.425-0.036 0.166-0.022 0.202 0.087 0.202 0.087-0.007 0.187-0.115 0.281-0.31 0.137-0.296 0.159-0.303 0.519-0.324 0.425-0.022 0.67 0.072 0.67 0.267 0 0.065 0.079 0.202 0.18 0.296 0.159 0.151 0.18 0.151 0.223 0.043 0.029-0.065 0-0.223-0.065-0.353-0.058-0.13-0.267-0.606-0.454-1.060s-0.36-0.858-0.389-0.887c-0.029-0.036-0.123 0.029-0.209 0.137zM33.090 29.193c0.108 0.281 0.022 0.389-0.288 0.36-0.238-0.029-0.267-0.26-0.065-0.519 0.173-0.216 0.209-0.195 0.353 0.159zM37.826 28.176c-0.065 0.058-0.065 2.062-0.007 2.213 0.065 0.166 0.223 0.137 0.274-0.050 0.079-0.31 0.050-2.033-0.043-2.127-0.101-0.101-0.159-0.108-0.223-0.036zM41.294 28.169c-0.036 0.029-0.058 0.57-0.058 1.197 0 0.952 0.014 1.139 0.108 1.139 0.144 0 0.209-0.418 0.159-1.002-0.058-0.728 0.014-0.771 0.497-0.26 1.038 1.096 1.204 1.262 1.262 1.262 0.036 0 0.065-0.519 0.065-1.153 0-1.103-0.007-1.153-0.144-1.153s-0.144 0.050-0.144 0.721c0 0.865-0.079 0.959-0.447 0.533-0.613-0.699-1.254-1.334-1.298-1.283zM46.261 28.176c-0.029 0.022-0.050 0.562-0.050 1.189 0 0.923 0.022 1.139 0.101 1.139 0.159 0 0.187-0.173 0.187-1.189 0-1.096-0.050-1.334-0.238-1.139zM49.505 28.176c-0.029 0.022-0.050 0.454-0.050 0.959v0.916l0.267 0.26c0.216 0.223 0.31 0.267 0.562 0.267 0.36 0 0.613-0.173 0.786-0.533 0.087-0.18 0.115-0.454 0.115-1.038 0-0.807-0.050-0.973-0.252-0.807-0.087 0.072-0.108 0.281-0.108 0.916 0 0.779-0.007 0.829-0.18 0.995-0.274 0.281-0.62 0.231-0.793-0.115-0.072-0.137-0.108-0.433-0.108-0.923 0-0.851-0.058-1.074-0.238-0.894zM60.917 29.315c0 1.009 0.014 1.189 0.108 1.189s0.108-0.18 0.108-1.189-0.014-1.189-0.108-1.189-0.108 0.18-0.108 1.189z"></path>
    </symbol>

    <symbol id="firebase" viewBox="0 0 23 32">
      <title>firebase</title>
      <path fill="#ffa000" d="M15.17 11.558l-3.2 2.98-2.971-5.995 1.535-3.447c0.388-0.688 1.022-0.697 1.41 0l3.226 6.462z"></path>
      <path fill="#f57f17" d="M11.971 14.537l-11.971 11.134 9-17.127 2.971 5.993z"></path>
      <path fill="#ffca28" d="M18.679 7.001c0.573-0.546 1.164-0.362 1.313 0.414l3.112 18.105-10.322 6.197c-0.362 0.202-1.322 0.282-1.322 0.282s-0.873-0.106-1.208-0.291l-10.252-6.037 18.679-18.67z"></path>
      <path fill="#ffa000" d="M9 8.544l-9 17.127 4.011-25.034c0.15-0.776 0.59-0.855 0.987-0.167l4.002 8.074z"></path>
    </symbol>

    <svg id="nx" viewBox="0 0 262 163">
      <title>nx</title>
      <polygon id="Path"  points="130.68 104.59 97.49 52.71 97.44 96.3 40.24 0 0 0 0 162.57 39.79 162.57 39.92 66.39 96.53 158.26"></polygon>
      <polygon id="Path"  points="97.5 41.79 137.24 41.79 137.33 41.33 137.33 0 97.54 0 97.49 41.33"></polygon>
      <path d="M198.66,86.86 C189.139872,86.6795216 180.538723,92.516445 177.19,101.43 C182.764789,93.0931021 193.379673,89.7432211 202.73,93.37 C207.05,95.13 212.73,97.97 217.23,96.45 C212.950306,90.4438814 206.034895,86.8725952 198.66,86.86 L198.66,86.86 Z" ></path>
      <path d="M243.75,106.42 C243.75,101.55 241.1,100.42 235.6,98.42 C231.52,97 226.89,95.4 223.52,91 C222.86,90.13 222.25,89.15 221.6,88.11 C220.14382,85.4164099 218.169266,83.037429 215.79,81.11 C212.58,78.75 208.37,77.6 202.91,77.6 C191.954261,77.6076705 182.084192,84.2206169 177.91,94.35 C183.186964,87.0278244 191.956716,83.0605026 200.940147,83.9314609 C209.923578,84.8024193 217.767888,90.3805017 221.54,98.58 C223.424615,101.689762 227.141337,103.174819 230.65,102.22 C236.02,101.07 235.65,106.15 243.76,107.87 L243.75,106.42 Z"></path>
      <path d="M261.46,105.38 L261.46,105.27 C261.34,73.03 235.17,45.45 202.91,45.45 C183.207085,45.4363165 164.821777,55.3450614 154,71.81 L153.79,71.45 L137.23,45.45 L97.5,45.4499858 L135.25,104.57 L98.41,162.57 L137,162.57 L153.79,136.78 L170.88,162.57 L209.48,162.57 L174.48,107.49 C173.899005,106.416838 173.583536,105.220114 173.56,104 C173.557346,96.2203871 176.64661,88.7586448 182.147627,83.2576275 C187.648645,77.7566101 195.110387,74.6673462 202.89,74.67 C219.11,74.67 221.82,84.37 225.32,88.93 C232.23,97.93 246.03,93.99 246.03,105.73 L246.03,105.73 C246.071086,108.480945 247.576662,111.001004 249.979593,112.340896 C252.382524,113.680787 255.317747,113.636949 257.679593,112.225896 C260.041438,110.814842 261.471086,108.250945 261.43,105.5 L261.43,105.5 L261.43,105.38 L261.46,105.38 Z"></path>
      <path d="M261.5,113.68 C261.892278,116.421801 261.504116,119.218653 260.38,121.75 C258.18,126.84 254.51,125.14 254.51,125.14 C254.51,125.14 251.35,123.6 253.27,120.65 C255.4,117.36 259.61,117.74 261.5,113.68 Z"></path>
    </svg>

    <symbol id="arrow-down" viewBox="0 0 32 32">
      <path fill="none" stroke-linejoin="round" stroke-linecap="round" stroke-miterlimit="10" stroke-width="1" d="M16 5.333v21.333"></path>
      <path fill="none" stroke-linejoin="round" stroke-linecap="round" stroke-miterlimit="10" stroke-width="1" d="M24 18.667l-8 8-8-8"></path>
    </symbol>
  </defs>
</svg>



