<svg xmlns="http://www.w3.org/2000/svg" width="83.398" height="17.376" viewBox="0 0 83.398 17.376">
  <g id="AdChoices-Logo" transform="translate(-385.139 -4695.624)">
    <path id="Path_388" data-name="Path 388" d="M273.139-.1h83.22V-17.48h-83.22Z" transform="translate(112 4713.104)" fill="#fff" opacity="0"/>
    <g id="Group_36" data-name="Group 36">
      <path id="Path_384" data-name="Path 384" d="M0,0,1.088-.149A2.369,2.369,0,0,0,.7-1.164a1.851,1.851,0,0,0-.862-.6,3.772,3.772,0,0,0-1.356-.223,3.333,3.333,0,0,0-.959.133,2.294,2.294,0,0,0-.708.325,1.77,1.77,0,0,0-.545.621,1.678,1.678,0,0,0-.2.811A1.647,1.647,0,0,0-3.682.78a1.644,1.644,0,0,0,.716.623,10.249,10.249,0,0,0,1.7.535,5.007,5.007,0,0,1,1.135.376.676.676,0,0,1,.327.593.926.926,0,0,1-.371.73,1.724,1.724,0,0,1-1.135.314A1.787,1.787,0,0,1-2.5,3.6a1.538,1.538,0,0,1-.516-1.012l-1.1.173a2.476,2.476,0,0,0,.856,1.575,3.085,3.085,0,0,0,1.947.53A3.416,3.416,0,0,0,.074,4.6a2.089,2.089,0,0,0,.936-.76A1.868,1.868,0,0,0,1.334,2.79a1.628,1.628,0,0,0-.265-.951,1.679,1.679,0,0,0-.733-.585A13.788,13.788,0,0,0-1.309.74C-1.852.592-2.179.5-2.29.457a.981.981,0,0,1-.426-.3.622.622,0,0,1-.135-.39.732.732,0,0,1,.326-.591,1.807,1.807,0,0,1,1.093-.253,1.57,1.57,0,0,1,1,.283A1.189,1.189,0,0,1,0,0M-5.169,1.721c0-.131.006-.229.006-.295A3.562,3.562,0,0,0-6-1.092a2.8,2.8,0,0,0-2.148-.9,2.88,2.88,0,0,0-2.21.914,3.616,3.616,0,0,0-.854,2.567,3.463,3.463,0,0,0,.844,2.486,3,3,0,0,0,2.281.885,3.03,3.03,0,0,0,1.877-.555A2.808,2.808,0,0,0-5.2,2.747l-1.149-.142A2.144,2.144,0,0,1-7.034,3.63a1.7,1.7,0,0,1-1.044.321,1.818,1.818,0,0,1-1.371-.575,2.511,2.511,0,0,1-.61-1.655ZM-6.336.809H-10A2.031,2.031,0,0,1-9.421-.562a1.768,1.768,0,0,1,1.288-.512,1.7,1.7,0,0,1,1.377.641A2.222,2.222,0,0,1-6.336.809M-15.99,3.352a2.954,2.954,0,0,1-.506-1.92,2.859,2.859,0,0,1,.524-1.9,1.724,1.724,0,0,1,1.364-.6,1.413,1.413,0,0,1,.95.334,1.793,1.793,0,0,1,.545.994l1.081-.166a2.483,2.483,0,0,0-.87-1.535,2.722,2.722,0,0,0-1.748-.54,3.157,3.157,0,0,0-1.564.4A2.438,2.438,0,0,0-17.286-.4a4.554,4.554,0,0,0-.351,1.859,3.566,3.566,0,0,0,.817,2.52,2.814,2.814,0,0,0,2.164.88,2.671,2.671,0,0,0,1.811-.638,2.844,2.844,0,0,0,.918-1.77l-1.094-.142a1.979,1.979,0,0,1-.555,1.235,1.559,1.559,0,0,1-1.092.4,1.652,1.652,0,0,1-1.322-.6m-4.25,1.364h1.113V-1.841H-20.24Zm0-7.772h1.113V-4.335H-20.24Zm-1.828,6.392a4.341,4.341,0,0,0,.381-1.991A3.375,3.375,0,0,0-22.546-1.1a2.945,2.945,0,0,0-2.211-.886,3.045,3.045,0,0,0-2.061.729,3.381,3.381,0,0,0-1.013,2.7,3.524,3.524,0,0,0,.85,2.544,2.952,2.952,0,0,0,2.224.883,3.213,3.213,0,0,0,1.584-.4,2.68,2.68,0,0,0,1.1-1.127M-22.831,1.4a2.858,2.858,0,0,1-.548,1.92,1.754,1.754,0,0,1-1.378.629,1.767,1.767,0,0,1-1.383-.626,2.8,2.8,0,0,1-.549-1.886A2.787,2.787,0,0,1-26.14-.445a1.771,1.771,0,0,1,1.383-.624,1.757,1.757,0,0,1,1.374.628A2.7,2.7,0,0,1-22.831,1.4m-7.528,3.315h1.112V.561a3.659,3.659,0,0,0-.232-1.469,1.685,1.685,0,0,0-.769-.793,2.629,2.629,0,0,0-1.266-.288,2.481,2.481,0,0,0-1.962.9V-4.335h-1.112V4.716h1.112V1.129a3.184,3.184,0,0,1,.185-1.21,1.455,1.455,0,0,1,.619-.7,1.812,1.812,0,0,1,.93-.256,1.331,1.331,0,0,1,1.021.381A1.712,1.712,0,0,1-30.359.561ZM-42.49,2.132A5.517,5.517,0,0,1-42.827.116a5.418,5.418,0,0,1,.284-1.737,2.643,2.643,0,0,1,.986-1.343,2.922,2.922,0,0,1,1.743-.5,2.43,2.43,0,0,1,1.506.451,2.786,2.786,0,0,1,.914,1.438l1.18-.278A3.607,3.607,0,0,0-37.505-3.8a3.714,3.714,0,0,0-2.283-.69,4.5,4.5,0,0,0-2.2.545,3.718,3.718,0,0,0-1.536,1.6,5.313,5.313,0,0,0-.54,2.465,6.144,6.144,0,0,0,.479,2.428,3.716,3.716,0,0,0,1.394,1.725,4.3,4.3,0,0,0,2.381.6,3.731,3.731,0,0,0,2.392-.776A4.032,4.032,0,0,0-36.06,1.846l-1.2-.3A2.969,2.969,0,0,1-38.2,3.265a2.575,2.575,0,0,1-1.706.58,2.942,2.942,0,0,1-1.536-.425A2.505,2.505,0,0,1-42.49,2.132m-4.285,2.584h1.031V-4.335h-1.1v3.249a2.206,2.206,0,0,0-.754-.653,2.177,2.177,0,0,0-1.054-.25,2.624,2.624,0,0,0-1.464.426A2.593,2.593,0,0,0-51.1-.337a4.662,4.662,0,0,0-.327,1.781,4.176,4.176,0,0,0,.361,1.782A2.845,2.845,0,0,0-50.05,4.432a2.562,2.562,0,0,0,1.441.433,2.04,2.04,0,0,0,1.834-.976Zm.019-3.18a2.751,2.751,0,0,1-.509,1.818,1.575,1.575,0,0,1-1.239.6,1.6,1.6,0,0,1-1.253-.623,2.849,2.849,0,0,1-.531-1.883,2.989,2.989,0,0,1,.5-1.908,1.546,1.546,0,0,1,1.237-.605,1.6,1.6,0,0,1,1.279.63,3.08,3.08,0,0,1,.519,1.975m-6.591,3.18h1.365l-3.7-9.051h-1.292l-3.474,9.051h1.271l.994-2.741H-54.4ZM-54.773,1h-3.068l.994-2.654a11.327,11.327,0,0,0,.487-1.728q.21.733.643,1.877Z" transform="translate(445.769 4704.587)" fill="#2b2e34"/>
      <path id="Path_385" data-name="Path 385" d="M0,0C1.526-.829,1.8-1.892.026-2.941l-12.455-6.8c-1.513-.855-2.75-.146-2.75,1.574v13.4c0,2.2,1.149,2.419,2.676,1.59l1.423-.793a1.254,1.254,0,0,0,.626-1.247.882.882,0,0,0-1.22-.608c-.849.461-1.393,0-1.393-.959V-6.321c0-.956.688-1.35,1.527-.875l8.594,4.909c.839.476.833,1.241-.015,1.7L-8.27,2.176V-1.076a.908.908,0,0,0-.907-.907.908.908,0,0,0-.907.907V3.533a1.2,1.2,0,0,0,.907,1.029,1.249,1.249,0,0,0,.857-.053ZM-8.179-3.519a.953.953,0,0,1-.953.953.952.952,0,0,1-.951-.953.952.952,0,0,1,.951-.953.953.953,0,0,1,.953.953" transform="translate(467.284 4705.727)" fill="#00aac9"/>
    </g>
  </g>
</svg>
