<svg xmlns="http://www.w3.org/2000/svg" width="84.209" height="17.375" viewBox="0 0 84.209 17.375">
  <g id="Comscore-Logo" transform="translate(-280.931 -4695.625)">
    <path id="Path_296" data-name="Path 296" d="M168.931-.1H253.14V-17.479H168.931Z" transform="translate(112 4713.104)" fill="#fff" opacity="0"/>
    <g id="Group_35" data-name="Group 35">
      <path id="Path_297" data-name="Path 297" d="M0,0V4.771l-9.537.974V8.417L3.607,9.732V-.36Z" transform="translate(294.09 4701.438)" fill="#54c6e8"/>
      <path id="Path_298" data-name="Path 298" d="M0,0V10.063L3.622,9.7V4.922l9.537-.94V1.3Z" transform="translate(280.931 4697.455)" fill="#ffa300"/>
      <path id="Path_299" data-name="Path 299" d="M0,0-9.537.94V5.72L0,4.747Z" transform="translate(294.09 4701.438)" fill="#e23d30"/>
      <path id="Path_300" data-name="Path 300" d="M0,0A3.408,3.408,0,0,1,3.408-3.408h.029A3.31,3.31,0,0,1,6.558-1.392l-1.266.54A1.95,1.95,0,0,0,3.437-2.089,2.049,2.049,0,0,0,1.383-.044V0A2.074,2.074,0,0,0,3.422,2.108h.039A1.981,1.981,0,0,0,5.316.818l1.276.54a3.321,3.321,0,0,1-3.16,2.05A3.408,3.408,0,0,1,0,.029H0V0" transform="translate(304.309 4704.884)" fill="#2b2e34"/>
      <path id="Path_301" data-name="Path 301" d="M0,0A2.02,2.02,0,0,0-2.02-2.02,2.02,2.02,0,0,0-4.041,0,2.02,2.02,0,0,0-2.02,2.02,2.02,2.02,0,0,0,0,0M-5.433,0A3.408,3.408,0,0,1-2.025-3.408,3.408,3.408,0,0,1,1.383,0,3.408,3.408,0,0,1-2.025,3.408,3.408,3.408,0,0,1-5.433,0" transform="translate(317.453 4704.884)" fill="#2b2e34"/>
      <path id="Path_302" data-name="Path 302" d="M0,0H1.4V.789a2.3,2.3,0,0,1,1.948-.92A2.278,2.278,0,0,1,5.516,1.052,2.55,2.55,0,0,1,7.726-.122a2.505,2.505,0,0,1,2.726,2.766V6.592H9.016V2.726A1.461,1.461,0,0,0,7.488,1.1,1.564,1.564,0,0,0,5.92,2.872v3.71H4.5V2.658A1.406,1.406,0,0,0,3.27,1.1a1.369,1.369,0,0,0-.256-.006c-.921,0-1.607.618-1.607,1.83V6.582H0Z" transform="translate(319.966 4701.598)" fill="#2b2e34"/>
      <path id="Path_303" data-name="Path 303" d="M0,0A3.408,3.408,0,0,1,3.408-3.408h.029A3.31,3.31,0,0,1,6.558-1.392l-1.266.54A1.95,1.95,0,0,0,3.437-2.089,2.049,2.049,0,0,0,1.383-.044V0A2.074,2.074,0,0,0,3.422,2.108h.039A1.981,1.981,0,0,0,5.316.818l1.276.54a3.32,3.32,0,0,1-3.155,2.05A3.408,3.408,0,0,1,0,.029H0Z" transform="translate(338.183 4704.884)" fill="#2b2e34"/>
      <path id="Path_304" data-name="Path 304" d="M0,0A2.02,2.02,0,0,0-2.02-2.02,2.02,2.02,0,0,0-4.041,0,2.02,2.02,0,0,0-2.02,2.02,2.02,2.02,0,0,0,0,0M-5.438,0A3.408,3.408,0,0,1-2.03-3.408,3.408,3.408,0,0,1,1.378,0,3.408,3.408,0,0,1-2.03,3.408,3.408,3.408,0,0,1-5.438,0" transform="translate(351.07 4704.884)" fill="#2b2e34"/>
      <path id="Path_305" data-name="Path 305" d="M0,0H1.407V1.013A1.907,1.907,0,0,1,3.213,0h.774V1.339H3.014c-1.145,0-1.592.6-1.592,1.947V6.553H0Z" transform="translate(353.557 4701.598)" fill="#2b2e34"/>
      <path id="Path_306" data-name="Path 306" d="M0,0H3.948A1.836,1.836,0,0,0,2-1.461,2.046,2.046,0,0,0,0,0M-1.422.735A3.408,3.408,0,0,1,1.947-2.7h.039A3.262,3.262,0,0,1,5.37.433v.76H-.078A2.016,2.016,0,0,0,2.04,2.877a2.062,2.062,0,0,0,1.947-1.2l1.159.642A3.5,3.5,0,0,1-1.417.706" transform="translate(359.77 4704.178)" fill="#2b2e34"/>
      <path id="Path_307" data-name="Path 307" d="M0,0,1.266-.657A1.872,1.872,0,0,0,2.95.316c.789,0,1.2-.408,1.2-.866s-.764-.662-1.592-.837C1.436-1.626.277-1.991.277-3.335c0-1.042.974-2,2.542-1.986A2.993,2.993,0,0,1,5.462-4.046L4.289-3.4a1.7,1.7,0,0,0-1.46-.75c-.75,0-1.135.37-1.135.789s.6.6,1.553.818c1.081.238,2.3.594,2.3,1.947,0,.911-.789,2.133-2.658,2.118A3.076,3.076,0,0,1,.01-.01" transform="translate(331.625 4706.759)" fill="#2b2e34"/>
    </g>
  </g>
</svg>
