<svg xmlns="http://www.w3.org/2000/svg" width="36.868" height="36" viewBox="0 0 36.868 36">
  <g id="TAG-Reg-Logo" transform="translate(-224.063 -4677)">
    <g id="Group_34" data-name="Group 34">
      <path id="Path_324" data-name="Path 324" d="M0,0H6.431a6.507,6.507,0,0,0-6.4-5.389,6.508,6.508,0,0,0-6.5,6.5A6.5,6.5,0,0,0,0,7.611Z" transform="translate(242.056 4693.89)" fill="#7f3f93"/>
      <path id="Path_325" data-name="Path 325" d="M0,0C-.139,0-1.111-.458-2.194-.75A11.531,11.531,0,0,1-4.25-1.486c-.681-.292-.708-.6-1-.6a1.525,1.525,0,0,1-1.194-.625.706.706,0,0,1,.083-.931c.111-.111.139-.083.042-.347s-.181-.75.041-.945.445-.25.375-.486a1.022,1.022,0,0,1,.153-.819c.153-.153.333-.181.264-.639s.347-.833.889-1a2,2,0,0,1,1.291.153c.417.139,1.139.514,1.473.153a1.869,1.869,0,0,0,.291-1.487,2.7,2.7,0,0,1,.264-1.569,2.068,2.068,0,0,1,1.014-.931c.333-.069.458-.027.445.195a9.146,9.146,0,0,0-.417,1.278c0,.347.139.93.111,1.236a1.633,1.633,0,0,0,.222,1,2.689,2.689,0,0,1,.1,1.639C.083-5.5-.458-3.6-.458-3.6Z" transform="translate(243.347 4700.765)" fill="#fff"/>
      <path id="Path_326" data-name="Path 326" d="M0,0H-.9V-1.375H.042v-1.9H1.736v1.9H3.319V0H1.736V2.819a1.24,1.24,0,0,0,1.375,1.32,1.612,1.612,0,0,0,.32-.028V5.625a3.157,3.157,0,0,1-.528.042c-.972,0-2.9-.292-2.9-2.625Z" transform="translate(241.625 4696)" fill="#6b7272"/>
      <path id="Path_327" data-name="Path 327" d="M0,0H.222V-.056c0-1-.4-1.361-1.291-1.361-.32,0-.931.084-.931.459v.375H-3.611v-.75c0-1.306,1.833-1.431,2.555-1.431,2.32,0,3.014,1.222,3.014,2.778v2.6a.278.278,0,0,0,.306.306h.542V4.375H1.25c-.639,0-.889-.361-.889-.764a3.033,3.033,0,0,1,.014-.305H.347A2.265,2.265,0,0,1-1.764,4.542,2.2,2.2,0,0,1-4.139,2.361C-4.139.167-1.139,0,0,0M-1.333,3.181A1.792,1.792,0,0,0,.25,1.347V1.181H-.056c-.9,0-2.333.125-2.333,1.1,0,.472.333.9,1.056.9" transform="translate(249.528 4697.223)" fill="#6b7272"/>
      <path id="Path_328" data-name="Path 328" d="M0,0A2.377,2.377,0,0,1,2.153.986h.028V.806c0-.32.222-.639.763-.639H4.556V1.639H4.028a.271.271,0,0,0-.306.278V6.708C3.722,9.1,1.861,10,.042,10a5.653,5.653,0,0,1-2.473-.6L-1.9,8.042A4.557,4.557,0,0,0,.028,8.5C1.083,8.5,2,8.056,2,6.792V6.458c0-.166.014-.375.014-.375H1.986a2.183,2.183,0,0,1-1.944.9c-2,0-3.139-1.611-3.139-3.528S-2,0,0,0M2.042,3.486C2.042,1.9,1.25,1.472.306,1.472c-1.056,0-1.625.764-1.625,1.945,0,1.222.611,2.125,1.736,2.125.833-.014,1.625-.486,1.625-2.056" transform="translate(255.57 4694.459)" fill="#6b7272"/>
      <path id="Path_329" data-name="Path 329" d="M0,0A8.648,8.648,0,0,0-8.639,8.639,8.651,8.651,0,0,0-.028,17.278V15.139A6.512,6.512,0,0,1-6.5,8.639,6.509,6.509,0,0,1,0,2.139,6.507,6.507,0,0,1,6.4,7.528H8.556A8.639,8.639,0,0,0,0,0" transform="translate(242.083 4686.362)" fill="#a0aaaf"/>
      <path id="Path_330" data-name="Path 330" d="M0,0A15.907,15.907,0,0,1-15.861-15.889,15.9,15.9,0,0,1,.028-31.778,15.9,15.9,0,0,1,15.875-17h2.111A18,18,0,0,0,.028-33.889a18.014,18.014,0,0,0-18,18A18.016,18.016,0,0,0,0,2.111Z" transform="translate(242.056 4710.889)" fill="#a0aaaf"/>
      <path id="Path_331" data-name="Path 331" d="M0,0A13.33,13.33,0,0,0-13.319,13.319,13.334,13.334,0,0,0-.028,26.639V24.6a11.289,11.289,0,0,1-11.25-11.278A11.286,11.286,0,0,1,0,2.042,11.29,11.29,0,0,1,11.222,12.208h2.056A13.338,13.338,0,0,0,0,0" transform="translate(242.083 4681.681)" fill="#a0aaaf"/>
      <path id="Path_332" data-name="Path 332" d="M0,0H.25V-1.556H0v-.222H.861a1.064,1.064,0,0,1,.375.042.507.507,0,0,1,.347.514.52.52,0,0,1-.416.555.2.2,0,0,1,.083.1l.278.486c.028.055.069.069.139.069h.055V.208H1.556c-.167,0-.209-.027-.278-.152L.972-.486A.194.194,0,0,0,.764-.6H.528v.583h.25V.208H0ZM.931-.819a.34.34,0,0,0,.361-.375.317.317,0,0,0-.181-.32.667.667,0,0,0-.25-.042H.528v.723h.4Z" transform="translate(242.945 4710.139)" fill="#7f3f93"/>
      <path id="Path_334" data-name="Path 334" d="M0,0H.25V-1.556H0v-.222H1.444v.459h-.25v-.237H.528v.639h.708v.236H.528v.667H1.25V-.25H1.5V.222H0Z" transform="translate(244.917 4710.139)" fill="#7f3f93"/>
      <path id="Path_335" data-name="Path 335" d="M0,0C.347,0,.764.139.764.389v.25H.514V.486c0-.167-.264-.25-.5-.25a.726.726,0,0,0-.764.778.755.755,0,0,0,.764.8c.18,0,.542-.055.542-.25V1.306H.167V1.083H.819v.556c0,.3-.513.417-.819.417A1.008,1.008,0,0,1-1.042,1.014.993.993,0,0,1,0,0" transform="translate(247.736 4708.334)" fill="#7f3f93"/>
      <path id="Path_337" data-name="Path 337" d="M0,0V.222H.25V1.777H0V2H.779V1.777H.528V.222H.779V0Z" transform="translate(248.875 4708.362)" fill="#7f3f93"/>
      <path id="Path_338" data-name="Path 338" d="M0,0V.153C0,.306.194.389.4.389c.236,0,.4-.111.4-.306,0-.236-.237-.3-.487-.4s-.527-.209-.527-.57S.1-1.431.431-1.431c.305,0,.611.112.611.334v.236H.778V-1c0-.111-.181-.181-.347-.181-.195,0-.348.1-.348.278,0,.209.2.278.431.361.292.111.583.223.583.6S.792.639.417.639C.111.639-.25.5-.25.208V0Z" transform="translate(250.222 4709.764)" fill="#7f3f93"/>
      <path id="Path_340" data-name="Path 340" d="M0,0H.25V-1.542H-.222v.306h-.25v-.542H1.25v.542H1v-.306H.528V0h.25V.222H-.014V0Z" transform="translate(251.986 4710.139)" fill="#7f3f93"/>
      <path id="Path_341" data-name="Path 341" d="M0,0H.25V-1.556H0v-.222H1.444v.459h-.25v-.237H.528v.639h.708v.236H.528v.667H1.25V-.25H1.5V.222H0Z" transform="translate(253.472 4710.139)" fill="#7f3f93"/>
      <path id="Path_342" data-name="Path 342" d="M0,0H.25V-1.556H0v-.222H.861a1.064,1.064,0,0,1,.375.042.507.507,0,0,1,.347.514.52.52,0,0,1-.416.555.2.2,0,0,1,.083.1l.278.486c.028.055.069.069.139.069h.055V.208H1.556c-.167,0-.209-.027-.278-.152L.972-.486A.194.194,0,0,0,.764-.6H.528v.583h.25V.208H0ZM.931-.819a.34.34,0,0,0,.361-.375.317.317,0,0,0-.181-.32.667.667,0,0,0-.25-.042H.528v.723h.4Z" transform="translate(255.264 4710.139)" fill="#7f3f93"/>
      <path id="Path_344" data-name="Path 344" d="M0,0H.25V-1.556H0v-.222H1.444v.459h-.25v-.237H.528v.639h.708v.236H.528v.667H1.25V-.25H1.5V.222H0Z" transform="translate(257.236 4710.139)" fill="#7f3f93"/>
      <path id="Path_345" data-name="Path 345" d="M0,0H.25V-1.556H0v-.222H.847a2.046,2.046,0,0,1,.431.042A.912.912,0,0,1,1.9-.792a.913.913,0,0,1-.625.945A1.337,1.337,0,0,1,.861.208H0ZM.833-.014a.859.859,0,0,0,.334-.055A.7.7,0,0,0,1.6-.792a.7.7,0,0,0-.43-.722.915.915,0,0,0-.348-.042H.514V-.028H.833Z" transform="translate(259.028 4710.139)" fill="#7f3f93"/>
    </g>
    <path id="Path_387" data-name="Path 387" d="M112.063-.1h36v-36h-36Z" transform="translate(112 4713.104)" fill="#fff" opacity="0"/>
  </g>
</svg>
