<svg xmlns="http://www.w3.org/2000/svg" width="36.063" height="36.104" viewBox="0 0 36.063 36.104">
  <g id="TAG-Cert-Logo" transform="translate(-168 -4677)">
    <g id="Group_33" data-name="Group 33">
      <path id="Path_348" data-name="Path 348" d="M0,0H6.431a6.507,6.507,0,0,0-6.4-5.389,6.508,6.508,0,0,0-6.5,6.5A6.5,6.5,0,0,0,0,7.611Z" transform="translate(185.993 4693.89)" fill="#66af54"/>
      <path id="Path_349" data-name="Path 349" d="M0,0C-.139,0-1.111-.458-2.194-.75A11.531,11.531,0,0,1-4.25-1.486c-.681-.292-.708-.6-1-.6a1.525,1.525,0,0,1-1.194-.625.706.706,0,0,1,.083-.931c.111-.111.139-.083.042-.347s-.181-.75.041-.945.445-.25.375-.486a1.022,1.022,0,0,1,.153-.819c.153-.153.333-.181.264-.639s.347-.833.889-1a2,2,0,0,1,1.291.153c.417.139,1.139.514,1.473.153a1.869,1.869,0,0,0,.291-1.487,2.7,2.7,0,0,1,.264-1.569,2.068,2.068,0,0,1,1.014-.931c.333-.069.458-.027.445.195a9.146,9.146,0,0,0-.417,1.278c0,.347.139.93.111,1.236a1.633,1.633,0,0,0,.222,1,2.69,2.69,0,0,1,.1,1.639C.083-5.5-.458-3.6-.458-3.6Z" transform="translate(187.285 4700.765)" fill="#fff"/>
      <path id="Path_350" data-name="Path 350" d="M0,0H-.9V-1.375H.042v-1.9H1.736v1.9H3.319V0H1.736V2.819a1.24,1.24,0,0,0,1.375,1.32,1.612,1.612,0,0,0,.32-.028V5.625a3.157,3.157,0,0,1-.528.042c-.972,0-2.9-.292-2.9-2.625Z" transform="translate(185.563 4696)" fill="#6b7272"/>
      <path id="Path_351" data-name="Path 351" d="M0,0H.222V-.056c0-1-.4-1.361-1.292-1.361-.319,0-.93.084-.93.459v.375H-3.611v-.75c0-1.306,1.833-1.431,2.555-1.431,2.32,0,3.014,1.222,3.014,2.778v2.6a.278.278,0,0,0,.306.306h.542V4.375H1.25c-.639,0-.889-.361-.889-.764a3.033,3.033,0,0,1,.014-.305H.347A2.265,2.265,0,0,1-1.764,4.542,2.2,2.2,0,0,1-4.139,2.361C-4.139.167-1.139,0,0,0M-1.333,3.181A1.792,1.792,0,0,0,.25,1.347V1.181H-.056c-.9,0-2.333.125-2.333,1.1,0,.472.333.9,1.056.9" transform="translate(193.465 4697.223)" fill="#6b7272"/>
      <path id="Path_352" data-name="Path 352" d="M0,0A2.377,2.377,0,0,1,2.153.986h.028V.806c0-.32.222-.639.763-.639H4.556V1.639H4.028a.271.271,0,0,0-.306.278V6.708C3.722,9.1,1.861,10,.042,10a5.653,5.653,0,0,1-2.473-.6L-1.9,8.042A4.557,4.557,0,0,0,.028,8.5C1.083,8.5,2,8.056,2,6.792V6.458c0-.166.014-.375.014-.375H1.986a2.183,2.183,0,0,1-1.944.9c-2,0-3.139-1.611-3.139-3.528S-2,0,0,0M2.042,3.486C2.042,1.9,1.25,1.472.306,1.472c-1.056,0-1.625.764-1.625,1.945,0,1.222.611,2.125,1.736,2.125.833-.014,1.625-.486,1.625-2.056" transform="translate(199.507 4694.459)" fill="#6b7272"/>
      <path id="Path_353" data-name="Path 353" d="M0,0A8.648,8.648,0,0,0-8.639,8.639,8.651,8.651,0,0,0-.028,17.278V15.139A6.512,6.512,0,0,1-6.5,8.639,6.509,6.509,0,0,1,0,2.139,6.507,6.507,0,0,1,6.4,7.528H8.556A8.639,8.639,0,0,0,0,0" transform="translate(186.021 4686.362)" fill="#a0aaaf"/>
      <path id="Path_354" data-name="Path 354" d="M0,0A15.907,15.907,0,0,1-15.861-15.889,15.9,15.9,0,0,1,.028-31.778,15.9,15.9,0,0,1,15.875-17h2.111A18,18,0,0,0,.028-33.889a18.014,18.014,0,0,0-18,18A18.016,18.016,0,0,0,0,2.111Z" transform="translate(185.993 4710.89)" fill="#a0aaaf"/>
      <path id="Path_355" data-name="Path 355" d="M0,0A13.33,13.33,0,0,0-13.319,13.319,13.334,13.334,0,0,0-.028,26.639V24.6a11.289,11.289,0,0,1-11.25-11.278A11.286,11.286,0,0,1,0,2.042,11.29,11.29,0,0,1,11.222,12.208h2.056A13.338,13.338,0,0,0,0,0" transform="translate(186.021 4681.681)" fill="#a0aaaf"/>
      <path id="Path_357" data-name="Path 357" d="M0,0V.218H.249V1.779H0V2H.805V1.779H.533v-.64h.691V.906H.533V.244h.606V.473h.246V0Z" transform="translate(186.866 4711.07)" fill="#66af54"/>
      <path id="Path_358" data-name="Path 358" d="M0,0V-.728H.331a.684.684,0,0,1,.247.037.307.307,0,0,1,.187.314A.345.345,0,0,1,.4,0ZM-.533,1.04H.246V.819H0V.232H.238a.193.193,0,0,1,.21.111L.756.89c.068.119.108.15.278.15H1.2V.819h-.06c-.07,0-.107-.012-.138-.065L.722.261A.245.245,0,0,0,.637.167v0A.543.543,0,0,0,1.051-.4.508.508,0,0,0,.7-.918,1.136,1.136,0,0,0,.334-.96H-.533v.218h.25V.819h-.25Z" transform="translate(188.976 4712.03)" fill="#66af54"/>
      <path id="Path_359" data-name="Path 359" d="M0,0,.246-.694A.9.9,0,0,0,.28-.847H.289a.715.715,0,0,0,.034.153L.567,0ZM-.7.892h.694V.671H-.227L-.071.227H.637L.793.671H.581V.892h.694V.671H1.082L.445-1.108H.125L-.513.671H-.7Z" transform="translate(190.962 4712.178)" fill="#66af54"/>
      <path id="Path_360" data-name="Path 360" d="M0,0A.811.811,0,0,0,.133.487.8.8,0,0,0,.79.779.776.776,0,0,0,1.442.487.849.849,0,0,0,1.581,0V-1.037H1.83v-.218H1.045v.218H1.3V-.006a.64.64,0,0,1-.077.323A.482.482,0,0,1,.79.527a.488.488,0,0,1-.43-.2A.622.622,0,0,1,.283,0V-1.037H.535v-.218H-.252v.218H0Z" transform="translate(192.551 4712.325)" fill="#66af54"/>
      <path id="Path_361" data-name="Path 361" d="M0,0V-1.535H.306a.954.954,0,0,1,.343.045.707.707,0,0,1,.433.722.7.7,0,0,1-.436.717A.908.908,0,0,1,.306,0ZM-.533.232H.323A1.309,1.309,0,0,0,.745.178a.917.917,0,0,0,.632-.946.927.927,0,0,0-.632-.951A1.4,1.4,0,0,0,.32-1.768H-.533v.219h.25V.011h-.25Z" transform="translate(195.095 4712.838)" fill="#66af54"/>
      <path id="Path_362" data-name="Path 362" d="M0,0,.246-.694A.9.9,0,0,0,.28-.847H.289a.715.715,0,0,0,.034.153L.567,0ZM-.7.892h.694V.671H-.227L-.071.227H.637L.793.671H.581V.892h.694V.671H1.082L.445-1.108H.125L-.513.671H-.7Z" transform="translate(187.452 4709.469)" fill="#66af54"/>
      <path id="Path_363" data-name="Path 363" d="M0,0A1.01,1.01,0,0,0,1.045,1.04c.3,0,.816-.111.816-.42V.059H1.21V.28H1.6V.544c0,.195-.357.249-.536.249a.749.749,0,0,1-.77-.8.725.725,0,0,1,.762-.777c.235,0,.5.083.5.25v.147h.261V-.635c0-.252-.417-.393-.768-.393A1,1,0,0,0,0,0" transform="translate(188.84 4709.356)" fill="#66af54"/>
      <path id="Path_364" data-name="Path 364" d="M0,0,.246-.694A.9.9,0,0,0,.28-.847H.289a.715.715,0,0,0,.034.153L.567,0ZM-.7.892h.694V.671H-.227L-.071.227H.637L.793.671H.581V.892h.694V.671H1.082L.445-1.108H.125L-.513.671H-.7Z" transform="translate(191.551 4709.469)" fill="#66af54"/>
      <path id="Path_366" data-name="Path 366" d="M0,0V.218H.249v1.56H0V2H.785V1.778H.533V.218H.785V0Z" transform="translate(192.951 4708.362)" fill="#66af54"/>
      <path id="Path_367" data-name="Path 367" d="M0,0H.79V-.221H.533v-1.2a1.214,1.214,0,0,0-.012-.162H.53A.83.83,0,0,0,.6-1.433L1.581,0h.277V-1.782H2.11V-2H1.32v.218h.255v1.2a1.49,1.49,0,0,0,.014.162H1.581a1.176,1.176,0,0,0-.068-.145L.53-2H0v.218H.249V-.221H0Z" transform="translate(193.976 4710.362)" fill="#66af54"/>
      <path id="Path_368" data-name="Path 368" d="M0,0V.21C0,.5.348.635.66.635A.6.6,0,0,0,1.343.054c0-.371-.292-.485-.587-.6C.533-.626.331-.7.331-.909c0-.184.156-.275.352-.275.164,0,.343.062.343.178v.139h.263V-1.1c0-.218-.306-.331-.606-.331-.337,0-.641.161-.641.538,0,.354.27.467.533.566.247.1.482.173.482.406,0,.2-.167.306-.4.306-.21,0-.4-.088-.4-.236V0Z" transform="translate(196.293 4709.761)" fill="#66af54"/>
      <path id="Path_370" data-name="Path 370" d="M0,0H.788V-.221H.535V-1.768h.471v.312h.246V-2H-.465v.544h.247v-.312h.47V-.221H0Z" transform="translate(198.271 4710.362)" fill="#66af54"/>
      <path id="Path_371" data-name="Path 371" d="M0,0A1.017,1.017,0,0,0,1.034,1.045c.278,0,.779-.1.779-.393V.408H1.55V.564c0,.184-.357.235-.5.235a.76.76,0,0,1-.759-.81.727.727,0,0,1,.742-.768c.184,0,.487.065.487.241v.156h.264V-.626c0-.309-.522-.4-.762-.4A1,1,0,0,0,0,0" transform="translate(186.854 4706.642)" fill="#66af54"/>
      <path id="Path_373" data-name="Path 373" d="M0,0H1.5V-.473H1.249v.241H.533v-.66h.708v-.233H.533v-.643H1.2v.233h.247V-2H0v.218H.249V-.221H0Z" transform="translate(188.917 4707.653)" fill="#66af54"/>
      <path id="Path_374" data-name="Path 374" d="M0,0V-.728H.331a.684.684,0,0,1,.247.037.306.306,0,0,1,.187.314A.345.345,0,0,1,.4,0ZM-.533,1.04H.246V.819H0V.232H.238a.193.193,0,0,1,.21.111L.756.89c.068.119.108.15.278.15H1.2V.819h-.06c-.07,0-.107-.012-.138-.065L.722.261A.245.245,0,0,0,.637.167v0A.543.543,0,0,0,1.051-.4.508.508,0,0,0,.7-.918,1.146,1.146,0,0,0,.334-.96H-.533v.218h.25V.819h-.25Z" transform="translate(191.183 4706.614)" fill="#66af54"/>
      <path id="Path_376" data-name="Path 376" d="M0,0H.788V-.221H.535V-1.768h.471v.312h.246V-2H-.465v.544h.247v-.312h.47V-.221H0Z" transform="translate(192.979 4707.653)" fill="#66af54"/>
      <path id="Path_377" data-name="Path 377" d="M0,0V.218H.249v1.56H0V2H.785V1.778H.533V.218H.785V0Z" transform="translate(194.407 4705.654)" fill="#66af54"/>
      <path id="Path_378" data-name="Path 378" d="M0,0H.805V-.221H.533v-.64h.691v-.232H.533v-.663h.606v.229h.246V-2H0v.218H.249V-.221H0Z" transform="translate(195.432 4707.653)" fill="#66af54"/>
      <path id="Path_379" data-name="Path 379" d="M0,0V.218H.249v1.56H0V2H.785V1.778H.533V.218H.785V0Z" transform="translate(197.009 4705.654)" fill="#66af54"/>
      <path id="Path_380" data-name="Path 380" d="M0,0H1.5V-.473H1.249v.241H.533v-.66h.708v-.233H.533v-.643H1.2v.233h.247V-2H0v.218H.249V-.221H0Z" transform="translate(198.035 4707.653)" fill="#66af54"/>
      <path id="Path_381" data-name="Path 381" d="M0,0V-1.535H.306a.954.954,0,0,1,.343.045.707.707,0,0,1,.433.722.7.7,0,0,1-.436.717A.908.908,0,0,1,.306,0ZM-.533.232H.323A1.309,1.309,0,0,0,.745.178a.917.917,0,0,0,.632-.946.927.927,0,0,0-.632-.951A1.4,1.4,0,0,0,.32-1.768H-.533v.219h.25V.011h-.25Z" transform="translate(200.302 4707.421)" fill="#66af54"/>
    </g>
    <path id="Path_386" data-name="Path 386" d="M56-.1H92v-36H56Z" transform="translate(112 4713.104)" fill="#fff" opacity="0"/>
  </g>
</svg>
