<svg xmlns="http://www.w3.org/2000/svg" width="36" height="36" viewBox="0 0 36 36">
  <g id="IAB-Logo" transform="translate(-112 -4677)">
    <g id="Group_32" data-name="Group 32">
      <path id="Path_309" data-name="Path 309" d="M0-.1H36v-36H0Z" transform="translate(112 4713.104)" fill="#fff" opacity="0"/>
      <g id="Group_31" data-name="Group 31">
        <path id="Path_310" data-name="Path 310" d="M0,0A2,2,0,0,0-2,2a2,2,0,0,0,2,2A2,2,0,0,0,2,2,2,2,0,0,0,0,0" transform="translate(143.571 4707.006)" fill="red"/>
        <path id="Path_311" data-name="Path 311" d="M0,0A2,2,0,0,0-2,2a2,2,0,0,0,2,2A2,2,0,0,0,0,0" transform="translate(116.421 4695.642)" fill="red"/>
        <path id="Path_313" data-name="Path 313" d="M2.888-2.177H5.953v-9.909H2.888Z" transform="translate(112 4713.104)" fill="#2b2e34"/>
        <path id="Path_314" data-name="Path 314" d="M0,0A2,2,0,0,1-2-2a2,2,0,0,1,2-2A2,2,0,0,1,2-2,2,2,0,0,1,0,0M3.9-5.486A4.514,4.514,0,0,0,.609-6.935a4.447,4.447,0,0,0-2.6.845v-6.489H-5.059V2.979h3.065v-.86a4.449,4.449,0,0,0,2.6.846h0A4.518,4.518,0,0,0,3.9,1.515a5.107,5.107,0,0,0,1.364-3.5A5.11,5.11,0,0,0,3.9-5.486" transform="translate(135.18 4707.948)" fill="#2b2e34"/>
        <path id="Path_315" data-name="Path 315" d="M0,0A2,2,0,0,1-2-2a2,2,0,0,1,2-2A2,2,0,0,1,2-2,2,2,0,0,1,0,0M2-6.931v.849a4.444,4.444,0,0,0-2.61-.854A4.507,4.507,0,0,0-3.9-5.486a5.1,5.1,0,0,0-1.362,3.5A5.1,5.1,0,0,0-3.9,1.515,4.5,4.5,0,0,0-.608,2.965h0A4.438,4.438,0,0,0,2,2.111v.868H5.067v-9.91Z" transform="translate(124.054 4707.948)" fill="#2b2e34"/>
        <path id="Path_316" data-name="Path 316" d="M0,0H.411a1.052,1.052,0,0,1-.5-.941A1.144,1.144,0,0,1,.521-1.982,1.2,1.2,0,0,1-.091-3.088,1.185,1.185,0,0,1,.42-4.111a1.737,1.737,0,0,1,.969-.21h2.4v.649h-2.3c-.694,0-.986.2-.986.685,0,.548.383.813,1.187.813h2.1v.649H1.544C.84-1.525.5-1.3.5-.822a.8.8,0,0,0,.4.685A1.945,1.945,0,0,0,1.727,0H3.791V.649H0Z" transform="translate(141.675 4704.901)" fill="red"/>
        <path id="Path_317" data-name="Path 317" d="M0,0A1.207,1.207,0,0,0,1.279-1.206c0-.512-.2-.8-.8-1.169L.8-2.923A1.876,1.876,0,0,1,1.873-1.179,1.842,1.842,0,0,1-.11.685a1.831,1.831,0,0,1-2-1.836,1.8,1.8,0,0,1,2-1.809H0ZM-.548-2.275A1.133,1.133,0,0,0-1.526-1.16,1.15,1.15,0,0,0-.548-.046Z" transform="translate(143.704 4699.2)" fill="red"/>
        <path id="Path_318" data-name="Path 318" d="M0,0H.411a1.052,1.052,0,0,1-.5-.941A1.144,1.144,0,0,1,.521-1.982,1.2,1.2,0,0,1-.091-3.088,1.185,1.185,0,0,1,.42-4.111a1.737,1.737,0,0,1,.969-.21h2.4v.649h-2.3c-.694,0-.986.2-.986.685,0,.548.383.813,1.187.813h2.1v.649H1.544C.84-1.525.5-1.3.5-.822a.8.8,0,0,0,.4.685A1.945,1.945,0,0,0,1.727,0H3.791V.649H0Z" transform="translate(141.675 4694.906)" fill="red"/>
        <path id="Path_319" data-name="Path 319" d="M0,0A1.629,1.629,0,0,1-.621-1.325,1.828,1.828,0,0,1,1.352-3.133a1.862,1.862,0,0,1,2.01,1.817A1.609,1.609,0,0,1,2.732,0h.52V.649H-3.407V0ZM1.352.046A1.29,1.29,0,0,0,2.768-1.215,1.278,1.278,0,0,0,1.38-2.466,1.266,1.266,0,0,0-.027-1.233,1.261,1.261,0,0,0,1.352.046" transform="translate(142.215 4688.977)" fill="red"/>
        <path id="Path_320" data-name="Path 320" d="M0,0A1.207,1.207,0,0,0,1.279-1.206c0-.511-.2-.8-.8-1.169L.8-2.923A1.877,1.877,0,0,1,1.873-1.178,1.842,1.842,0,0,1-.11.685a1.831,1.831,0,0,1-2-1.836,1.8,1.8,0,0,1,2-1.809H0ZM-.548-2.275A1.134,1.134,0,0,0-1.526-1.16,1.15,1.15,0,0,0-.548-.046Z" transform="translate(143.704 4684.729)" fill="red"/>
        <path id="Path_321" data-name="Path 321" d="M0,0H.411C0-.338-.091-.493-.091-.859a1.008,1.008,0,0,1,.164-.575l.585.3A.6.6,0,0,0,.53-.749a.7.7,0,0,0,.338.6A2.024,2.024,0,0,0,1.791,0h2V.649H0Z" transform="translate(141.675 4680.435)" fill="red"/>
      </g>
    </g>
  </g>
</svg>
