
<svg
   xmlns:dc="http://purl.org/dc/elements/1.1/"
   xmlns:cc="http://creativecommons.org/ns#"
   xmlns:rdf="http://www.w3.org/1999/02/22-rdf-syntax-ns#"
   xmlns:svg="http://www.w3.org/2000/svg"
   xmlns="http://www.w3.org/2000/svg"
   viewBox="0 0 272.40134 151.724"
   height="151.724"
   width="272.40134"
   xml:space="preserve"
   id="svg2"
   version="1.1"><metadata
     id="metadata8"><rdf:RDF><cc:Work
         rdf:about=""><dc:format>image/svg+xml</dc:format><dc:type
           rdf:resource="http://purl.org/dc/dcmitype/StillImage" /></cc:Work></rdf:RDF></metadata><defs
     id="defs6"><clipPath
       id="clipPath18"
       clipPathUnits="userSpaceOnUse"><path
         id="path16"
         d="M 0,113.793 H 204.301 V 0 H 0 Z" /></clipPath></defs><g
     transform="matrix(1.3333333,0,0,-1.3333333,0,151.724)"
     id="g10"><g
       id="g12"><g
         clip-path="url(#clipPath18)"
         id="g14"><g
           transform="translate(39.7239,69.5726)"
           id="g20"><path
             id="path22"
             style="fill:#425587;fill-opacity:1;fill-rule:nonzero;stroke:none"
             d="m 0,0 c -2.987,5.339 -7.795,8.222 -15.38,8.222 -5.765,0 -10.569,-2.455 -13.345,-6.514 v 5.339 h -10.999 v -56.009 h 10.999 v 32.744 c 0,9.062 3.415,14.296 10.784,14.296 7.261,0 10.789,-4.058 10.789,-15.355 V -48.962 H 3.843 v 32.744 c 0,9.062 3.42,14.296 10.789,14.296 7.261,0 10.783,-4.058 10.783,-15.355 v -31.685 h 10.999 v 32.107 C 36.414,-0.319 30.219,8.222 17.193,8.222 8.436,8.222 4.057,5.02 0,0" /></g><g
           transform="translate(119.0667,36.724)"
           id="g24"><path
             id="path26"
             style="fill:#425587;fill-opacity:1;fill-rule:nonzero;stroke:none"
             d="m 0,0 c -2.887,-3.617 -7.479,-7.139 -12.733,-7.139 -8.133,0 -12.619,6.184 -12.619,20.262 0,11.821 4.274,17.804 12.187,17.804 5.581,0 10.707,-4.058 13.165,-7.371 z m -0.216,48.492 v -13.83 c -2.991,3.418 -8.334,6.408 -14.019,6.408 -11.544,0 -22.117,-9.076 -22.117,-28.269 0,-21.33 9.613,-30.089 21.578,-30.089 5.899,0 10.502,2.776 14.558,6.515 v -0.962 c 0,-11.638 -3.419,-15.911 -19.264,-16.657 l 3.739,-8.332 c 20.333,0.643 26.522,8.864 26.522,25.951 v 46.039 z" /></g><g
           transform="translate(138.0296,67.183)"
           id="g28"><path
             id="path30"
             style="fill:#425587;fill-opacity:1;fill-rule:nonzero;stroke:none"
             d="M 0,0 V -46.572 H 10.999 V 5.565 Z" /></g><g
           transform="translate(193.5149,36.724)"
           id="g32"><path
             id="path34"
             style="fill:#425587;fill-opacity:1;fill-rule:nonzero;stroke:none"
             d="m 0,0 c -2.883,-3.617 -7.475,-7.139 -12.707,-7.139 -8.117,0 -12.603,6.184 -12.603,20.262 0,11.821 4.272,17.804 12.175,17.804 5.553,0 10.678,-4.058 13.135,-7.371 z m -0.109,60.092 v -25.43 c -3.095,3.418 -8.434,6.408 -14.094,6.408 -11.639,0 -22.104,-9.076 -22.104,-28.269 0,-21.33 9.504,-30.089 21.57,-30.089 5.873,0 10.572,2.776 14.628,6.515 v -5.34 h 10.895 v 81.862 z" /></g><g
           transform="translate(137.681,88.2191)"
           id="g36"><path
             id="path38"
             style="fill:#f24a4b;fill-opacity:1;fill-rule:nonzero;stroke:none"
             d="M 0,0 -16.437,7.512 -0.321,-9.68 66.62,25.573 Z" /></g></g></g></g></svg>